<svg xmlns="http://www.w3.org/2000/svg" xmlns:v="https://svgstorm.com"
viewBox = "0 0 500 500"
width="500"
height="500">
<g fill="None" fill-opacity="0.0" stroke="#000000" stroke-opacity="0.00" stroke-width="0.3"><path d="
M 0.00 500.00 
L 500.00 500.00
L 500.00 0.00
L 0.00 0.00
L 0.00 500.00
M 229.00 52.00 
C 233.32 53.36 237.26 55.22 241.00 58.00
C 244.67 60.73 248.31 64.39 251.00 68.00
C 255.12 73.53 257.63 80.11 258.00 87.00
C 258.69 91.26 258.40 95.87 258.00 100.00
C 258.00 105.79 258.08 113.69 256.00 119.00
C 264.44 117.34 276.36 121.26 286.00 120.00 C 295.64 118.74 307.22 120.29 317.00 120.00 C 326.78 119.71 338.10 119.05 347.00 121.00
C 348.00 121.00 349.00 121.00 350.00 121.00
C 360.29 118.74 372.91 120.16 384.00 120.00 C 395.09 119.84 407.73 119.16 418.00 121.00
C 422.46 121.80 425.12 122.60 429.00 125.00
C 432.44 127.13 437.11 130.14 439.00 134.00
C 439.20 134.40 439.00 135.00 439.00 135.00
C 440.42 136.04 441.52 137.22 442.00 139.00
C 442.13 139.47 442.00 140.00 442.00 140.00
C 443.27 141.24 443.48 142.27 444.00 144.00
C 444.73 146.45 444.90 148.30 445.00 151.00
C 445.43 153.99 445.28 157.13 445.00 160.00
C 445.00 181.73 439.51 203.67 437.00 225.00
C 436.75 227.16 436.15 230.47 436.00 232.00
C 435.40 261.76 428.45 291.68 425.00 321.00
C 424.75 323.16 424.15 326.47 424.00 328.00
C 423.83 336.62 421.98 344.70 421.00 353.00
C 420.75 355.16 420.15 358.47 420.00 360.00
C 419.71 374.30 417.77 388.45 410.00 400.00
C 409.04 401.43 408.21 403.47 407.00 405.00
C 404.61 408.03 402.15 409.96 399.00 412.00
C 394.72 414.76 390.83 416.70 386.00 418.00
C 384.20 418.48 383.01 418.85 381.00 419.00
C 361.81 422.57 333.17 422.11 314.00 419.00
C 308.81 418.72 304.17 417.10 300.00 414.00
C 296.67 411.52 293.44 408.28 291.00 405.00
C 287.96 400.92 287.00 396.83 286.00 392.00
C 285.10 387.68 285.60 383.16 286.00 379.00
C 286.00 370.46 286.97 361.14 289.00 353.00
C 288.84 351.69 289.12 350.32 289.00 349.00
C 252.00 349.00 215.00 349.00 178.00 349.00
C 162.68 350.48 143.21 351.47 128.00 349.00
C 111.95 348.13 94.59 334.22 92.00 318.00
C 91.62 316.76 90.94 315.83 91.00 314.00
C 91.02 313.50 91.00 312.50 91.00 312.00
C 89.31 308.03 90.64 303.76 91.00 300.00
C 91.00 278.01 97.17 256.62 98.93 234.93 C 100.69 213.23 104.46 191.52 107.00 170.00
C 107.22 168.10 107.85 165.28 108.00 164.00
C 108.25 155.07 109.97 146.68 111.00 138.00
C 111.22 136.10 111.85 133.28 112.00 132.00
C 112.32 120.44 114.53 109.28 116.00 98.00
C 116.25 96.12 116.66 94.37 117.00 93.00
C 117.24 91.19 117.48 89.74 118.00 88.00
C 118.49 86.36 119.35 85.31 120.00 84.00
C 120.86 81.61 121.73 79.30 123.00 77.00
C 126.21 71.18 130.80 66.27 136.00 62.00
C 137.23 60.99 138.62 59.72 140.00 59.00
C 140.39 58.79 141.00 59.00 141.00 59.00
C 142.87 56.01 146.95 55.20 150.00 54.00
C 152.26 53.11 153.54 52.39 156.00 52.00
C 157.22 51.63 158.15 50.76 160.00 51.00
C 160.49 51.06 161.00 51.00 161.00 51.00
C 167.07 46.51 180.05 51.13 188.00 50.00 C 195.95 48.87 207.71 50.00 216.00 50.00
C 220.92 50.00 224.53 50.59 229.00 52.00 Z"/>
</g>
<g fill="None" fill-opacity="0.0" stroke="#7D5FD0" stroke-opacity="1.00" stroke-width="0.3"><path d="
M 161.00 51.00 
C 170.00 51.00 179.00 51.00 188.00 51.00
C 183.65 55.44 186.60 64.87 186.00 73.00 C 185.40 81.13 186.32 91.55 186.00 100.00 C 185.68 108.45 186.26 118.60 186.00 127.00 C 185.74 135.40 186.37 144.97 186.00 153.00 C 185.63 161.03 186.00 167.61 185.22 175.22 C 184.44 182.84 184.22 190.04 183.00 198.00
C 185.20 197.26 182.69 193.67 185.00 193.00
C 188.46 171.22 187.47 135.65 209.00 123.00
C 207.43 123.31 205.88 124.69 204.00 124.00
C 204.07 121.13 205.80 117.17 201.00 118.00
C 207.73 110.69 205.27 96.38 205.00 86.00 C 204.73 75.62 207.83 62.70 204.00 55.00
C 206.94 50.57 212.19 51.58 216.00 50.00
C 207.71 50.00 195.95 48.87 188.00 50.00 C 180.05 51.13 167.07 46.51 161.00 51.00 Z"/>
</g>
<g fill="None" fill-opacity="0.0" stroke="#9C64D9" stroke-opacity="1.00" stroke-width="0.3"><path d="
M 209.00 123.00 
C 223.35 120.15 238.89 121.00 254.00 121.00
C 249.31 117.53 235.39 122.27 236.78 113.78 C 238.17 105.29 234.78 100.54 236.00 91.00 C 237.22 81.46 235.08 73.41 236.00 64.00
C 232.76 64.52 232.88 59.48 235.00 57.00
C 233.03 55.28 230.05 54.63 229.00 52.00
C 224.53 50.59 220.92 50.00 216.00 50.00
C 212.19 51.58 206.94 50.57 204.00 55.00
C 207.83 62.70 204.73 75.62 205.00 86.00 C 205.27 96.38 207.73 110.69 201.00 118.00
C 205.80 117.17 204.07 121.13 204.00 124.00
C 205.88 124.69 207.43 123.31 209.00 123.00 Z"/>
</g>
<g fill="None" fill-opacity="0.0" stroke="#B8BBE3" stroke-opacity="0.38" stroke-width="0.3"><path d="
M 156.00 52.00 
C 157.88 51.70 158.66 52.37 160.00 51.00
C 158.15 50.76 157.22 51.63 156.00 52.00 Z"/>
</g>
<g fill="None" fill-opacity="0.0" stroke="#5B59C6" stroke-opacity="1.00" stroke-width="0.3"><path d="
M 156.00 52.00 
C 153.54 52.39 152.26 53.11 150.00 54.00
C 148.78 54.67 147.19 56.39 146.00 57.00
C 147.68 56.58 149.33 56.58 151.00 56.00
C 150.81 59.90 149.47 60.59 145.00 60.00
C 147.70 61.79 149.84 60.83 146.00 63.00
C 152.36 65.37 148.17 76.24 149.00 84.00 C 149.83 91.76 148.62 101.74 149.00 110.00 C 149.38 118.26 148.83 127.52 149.00 136.00 C 149.17 144.48 148.92 153.42 149.00 162.00 C 149.08 170.58 148.95 179.38 149.00 188.00 C 149.05 196.62 148.95 205.38 149.00 214.00 C 149.05 222.62 148.92 231.40 149.00 240.00 C 149.08 248.60 148.84 257.47 149.00 266.00 C 149.16 274.53 148.66 283.64 149.00 292.00 C 149.34 300.36 148.24 310.00 149.00 318.00 C 149.76 326.00 146.71 336.68 150.00 340.00
C 147.65 343.06 147.17 342.38 151.00 345.00
C 148.22 345.26 146.11 347.79 143.00 347.00
C 152.42 349.32 163.82 347.35 174.00 348.00
C 176.00 348.00 178.00 348.00 180.00 348.00
C 159.19 344.06 165.15 319.25 167.78 303.78 C 170.41 288.31 172.81 265.02 176.33 248.33 C 179.85 231.64 182.24 210.33 185.00 193.00
C 182.69 193.67 185.20 197.26 183.00 198.00
C 184.22 190.04 184.44 182.84 185.22 175.22 C 186.00 167.61 185.63 161.03 186.00 153.00 C 186.37 144.97 185.74 135.40 186.00 127.00 C 186.26 118.60 185.68 108.45 186.00 100.00 C 186.32 91.55 185.40 81.13 186.00 73.00 C 186.60 64.87 183.65 55.44 188.00 51.00
C 179.00 51.00 170.00 51.00 161.00 51.00
C 161.00 51.00 160.49 51.06 160.00 51.00
C 158.66 52.37 157.88 51.70 156.00 52.00 Z"/>
</g>
<g fill="None" fill-opacity="0.0" stroke="#BB6DE1" stroke-opacity="0.98" stroke-width="0.3"><path d="
M 254.00 121.00 
C 254.50 121.00 255.00 121.00 255.00 121.00
C 254.66 121.42 256.15 118.61 256.00 119.00
C 258.08 113.69 258.00 105.79 258.00 100.00
C 258.00 95.69 258.23 91.30 258.00 87.00
C 257.63 80.11 255.12 73.53 251.00 68.00
C 248.24 64.84 244.11 60.71 241.00 58.00
C 237.26 55.22 233.32 53.36 229.00 52.00
C 230.05 54.63 233.03 55.28 235.00 57.00
C 232.88 59.48 232.76 64.52 236.00 64.00
C 235.08 73.41 237.22 81.46 236.00 91.00 C 234.78 100.54 238.17 105.29 236.78 113.78 C 235.39 122.27 249.31 117.53 254.00 121.00 Z"/>
</g>
<g fill="None" fill-opacity="0.0" stroke="#BBC0ED" stroke-opacity="0.33" stroke-width="0.3"><path d="
M 141.00 59.00 
C 142.61 58.19 144.50 57.77 146.00 57.00
C 147.19 56.39 148.78 54.67 150.00 54.00
C 146.95 55.20 142.87 56.01 141.00 59.00 Z"/>
</g>
<g fill="None" fill-opacity="0.0" stroke="#2F52B8" stroke-opacity="0.99" stroke-width="0.3"><path d="
M 146.00 57.00 
C 144.50 57.77 142.61 58.19 141.00 59.00
C 141.00 59.00 140.39 58.79 140.00 59.00
C 138.56 61.06 136.82 62.44 135.00 64.00
C 130.54 67.82 126.17 72.42 123.00 77.00
C 121.73 79.30 120.86 81.61 120.00 84.00
C 119.49 85.41 118.48 86.86 118.00 88.00
C 117.48 89.74 117.24 91.19 117.00 93.00
C 116.75 94.89 116.34 96.63 116.00 98.00
C 114.53 109.28 112.32 120.44 112.00 132.00
C 111.93 134.34 111.38 136.29 111.00 138.00
C 109.97 146.68 108.25 155.07 108.00 164.00
C 107.93 166.34 107.38 168.29 107.00 170.00
C 104.46 191.52 100.69 213.23 98.93 234.93 C 97.17 256.62 91.00 278.01 91.00 300.00
C 91.00 304.00 91.00 308.00 91.00 312.00
C 91.00 312.50 91.02 313.50 91.00 314.00
C 91.35 315.14 91.75 316.43 92.00 318.00
C 94.59 334.22 111.95 348.13 128.00 349.00
C 143.23 349.83 158.74 349.00 174.00 349.00
C 173.78 348.87 174.00 348.00 174.00 348.00
C 163.82 347.35 152.42 349.32 143.00 347.00
C 146.11 347.79 148.22 345.26 151.00 345.00
C 147.17 342.38 147.65 343.06 150.00 340.00
C 146.71 336.68 149.76 326.00 149.00 318.00 C 148.24 310.00 149.34 300.36 149.00 292.00 C 148.66 283.64 149.16 274.53 149.00 266.00 C 148.84 257.47 149.08 248.60 149.00 240.00 C 148.92 231.40 149.05 222.62 149.00 214.00 C 148.95 205.38 149.05 196.62 149.00 188.00 C 148.95 179.38 149.08 170.58 149.00 162.00 C 148.92 153.42 149.17 144.48 149.00 136.00 C 148.83 127.52 149.38 118.26 149.00 110.00 C 148.62 101.74 149.83 91.76 149.00 84.00 C 148.17 76.24 152.36 65.37 146.00 63.00
C 149.84 60.83 147.70 61.79 145.00 60.00
C 149.47 60.59 150.81 59.90 151.00 56.00
C 149.33 56.58 147.68 56.58 146.00 57.00 Z"/>
</g>
<g fill="None" fill-opacity="0.0" stroke="#E8C5F4" stroke-opacity="0.33" stroke-width="0.3"><path d="
M 251.00 68.00 
C 248.31 64.39 244.67 60.73 241.00 58.00
C 244.11 60.71 248.24 64.84 251.00 68.00 Z"/>
</g>
<g fill="None" fill-opacity="0.0" stroke="#99A5D9" stroke-opacity="0.53" stroke-width="0.3"><path d="
M 136.00 62.00 
C 135.57 62.50 135.39 63.58 135.00 64.00
C 136.82 62.44 138.56 61.06 140.00 59.00
C 138.62 59.72 137.23 60.99 136.00 62.00 Z"/>
</g>
<g fill="None" fill-opacity="0.0" stroke="#C7D3F5" stroke-opacity="0.23" stroke-width="0.3"><path d="
M 123.00 77.00 
C 126.17 72.42 130.54 67.82 135.00 64.00
C 135.39 63.58 135.57 62.50 136.00 62.00
C 130.80 66.27 126.21 71.18 123.00 77.00 Z"/>
</g>
<g fill="None" fill-opacity="0.0" stroke="#AFC8EC" stroke-opacity="0.30" stroke-width="0.3"><path d="
M 118.00 88.00 
C 118.48 86.86 119.49 85.41 120.00 84.00
C 119.35 85.31 118.49 86.36 118.00 88.00 Z"/>
</g>
<g fill="None" fill-opacity="0.0" stroke="#FFE4FF" stroke-opacity="0.08" stroke-width="0.3"><path d="
M 258.00 100.00 
C 258.40 95.87 258.69 91.26 258.00 87.00
C 258.23 91.30 258.00 95.69 258.00 100.00 Z"/>
</g>
<g fill="None" fill-opacity="0.0" stroke="#A6BFEF" stroke-opacity="0.36" stroke-width="0.3"><path d="
M 116.00 98.00 
C 116.34 96.63 116.75 94.89 117.00 93.00
C 116.66 94.37 116.25 96.12 116.00 98.00 Z"/>
</g>
<g fill="None" fill-opacity="0.0" stroke="#D2B3FF" stroke-opacity="0.43" stroke-width="0.3"><path d="
M 255.00 121.00 
C 284.67 121.00 314.33 121.00 344.00 121.00
C 345.00 121.00 346.00 121.00 347.00 121.00
C 338.10 119.05 326.78 119.71 317.00 120.00 C 307.22 120.29 295.64 118.74 286.00 120.00 C 276.36 121.26 264.44 117.34 256.00 119.00
C 256.15 118.61 254.66 121.42 255.00 121.00 Z"/>
</g>
<g fill="None" fill-opacity="0.0" stroke="#DACCFE" stroke-opacity="0.30" stroke-width="0.3"><path d="
M 350.00 121.00 
C 364.00 121.00 378.00 121.00 392.00 121.00
C 400.67 121.00 409.33 121.00 418.00 121.00
C 407.73 119.16 395.09 119.84 384.00 120.00 C 372.91 120.16 360.29 118.74 350.00 121.00 Z"/>
</g>
<g fill="None" fill-opacity="0.0" stroke="#8B52FE" stroke-opacity="1.00" stroke-width="0.3"><path d="
M 209.00 123.00 
C 187.47 135.65 188.46 171.22 185.00 193.00
C 182.24 210.33 179.85 231.64 176.33 248.33 C 172.81 265.02 170.41 288.31 167.78 303.78 C 165.15 319.25 159.19 344.06 180.00 348.00
C 216.67 348.00 253.33 348.00 290.00 348.00
C 291.03 322.38 297.21 296.22 299.98 270.98 C 302.74 245.74 305.79 216.90 309.33 192.33 C 312.87 167.76 310.39 142.73 333.00 128.00
C 336.36 125.81 340.92 124.29 344.00 122.00
C 344.24 121.82 344.00 121.00 344.00 121.00
C 314.33 121.00 284.67 121.00 255.00 121.00
C 255.00 121.00 254.50 121.00 254.00 121.00
C 238.89 121.00 223.35 120.15 209.00 123.00 Z"/>
</g>
<g fill="None" fill-opacity="0.0" stroke="#715DCC" stroke-opacity="1.00" stroke-width="0.3"><path d="
M 344.00 122.00 
C 349.39 122.49 354.92 121.34 360.00 123.00
C 357.94 131.04 359.45 147.39 359.00 158.00 C 358.55 168.61 359.21 170.38 359.00 179.00 C 358.79 187.62 359.09 191.40 359.00 199.00 C 358.91 206.60 359.04 212.82 359.00 220.00 C 358.96 227.18 359.02 233.06 359.00 240.00 C 358.98 246.94 359.01 253.12 359.00 260.00 C 358.99 266.88 359.01 274.14 359.00 281.00 C 358.99 287.86 359.01 294.17 359.00 301.00 C 358.99 307.83 359.03 315.20 359.00 322.00 C 358.97 328.80 359.07 335.26 359.00 342.00 C 358.93 348.74 359.14 355.27 359.00 362.00 C 358.86 368.73 359.30 376.35 359.00 383.00 C 358.70 389.65 359.71 396.59 359.00 403.00 C 358.29 409.41 360.62 416.08 360.00 419.00
C 366.94 419.00 374.09 419.51 381.00 419.00
C 383.01 418.85 384.20 418.48 386.00 418.00
C 388.30 417.07 390.34 414.48 393.00 414.00
C 386.45 405.17 392.00 394.67 391.00 381.00 C 390.00 367.33 391.46 352.03 391.00 338.00 C 390.54 323.97 391.24 309.18 391.00 295.00 C 390.76 280.82 391.18 266.23 391.00 252.00 C 390.82 237.77 391.23 223.21 391.00 209.00 C 390.77 194.79 391.44 180.11 391.00 166.00 C 390.56 151.89 392.80 136.43 389.00 124.00
C 391.21 124.71 392.46 123.10 392.00 121.00
C 378.00 121.00 364.00 121.00 350.00 121.00
C 349.00 121.00 348.00 121.00 347.00 121.00
C 346.00 121.00 345.00 121.00 344.00 121.00
C 344.00 121.00 344.24 121.82 344.00 122.00 Z"/>
</g>
<g fill="None" fill-opacity="0.0" stroke="#9162D5" stroke-opacity="1.00" stroke-width="0.3"><path d="
M 386.00 418.00 
C 390.83 416.70 394.72 414.76 399.00 412.00
C 401.46 410.00 404.80 407.38 407.00 405.00
C 408.21 403.47 409.04 401.43 410.00 400.00
C 410.58 397.79 410.89 396.91 409.00 395.00
C 413.37 389.87 407.20 384.72 408.00 375.00 C 408.80 365.28 407.64 353.22 408.00 343.00 C 408.36 332.78 407.84 321.43 408.00 311.00 C 408.16 300.57 407.94 289.47 408.00 279.00 C 408.06 268.53 408.00 258.49 408.00 248.00 C 408.00 237.51 408.05 226.50 408.00 216.00 C 407.95 205.50 408.14 194.40 408.00 184.00 C 407.86 173.60 408.32 162.12 408.00 152.00 C 407.68 141.88 408.83 131.51 408.00 124.00
C 411.25 123.07 415.69 123.73 418.00 121.00
C 409.33 121.00 400.67 121.00 392.00 121.00
C 392.46 123.10 391.21 124.71 389.00 124.00
C 392.80 136.43 390.56 151.89 391.00 166.00 C 391.44 180.11 390.77 194.79 391.00 209.00 C 391.23 223.21 390.82 237.77 391.00 252.00 C 391.18 266.23 390.76 280.82 391.00 295.00 C 391.24 309.18 390.54 323.97 391.00 338.00 C 391.46 352.03 390.00 367.33 391.00 381.00 C 392.00 394.67 386.45 405.17 393.00 414.00
C 390.34 414.48 388.30 417.07 386.00 418.00 Z"/>
</g>
<g fill="None" fill-opacity="0.0" stroke="#AD6ADD" stroke-opacity="0.98" stroke-width="0.3"><path d="
M 410.00 400.00 
C 417.77 388.45 419.71 374.30 420.00 360.00
C 420.05 357.36 420.58 354.99 421.00 353.00
C 421.98 344.70 423.83 336.62 424.00 328.00
C 424.05 325.36 424.58 322.99 425.00 321.00
C 428.45 291.68 435.40 261.76 436.00 232.00
C 436.05 229.36 436.58 226.99 437.00 225.00
C 439.51 203.67 445.00 181.73 445.00 160.00
C 445.00 157.01 445.11 153.99 445.00 151.00
C 444.90 148.30 444.73 146.45 444.00 144.00
C 443.39 142.57 442.12 141.97 442.00 140.00
C 442.00 140.00 442.13 139.47 442.00 139.00
C 440.58 137.96 439.48 136.79 439.00 135.00
C 439.00 135.00 439.20 134.40 439.00 134.00
C 435.33 131.43 432.31 127.56 429.00 125.00
C 425.12 122.60 422.46 121.80 418.00 121.00
C 415.69 123.73 411.25 123.07 408.00 124.00
C 408.83 131.51 407.68 141.88 408.00 152.00 C 408.32 162.12 407.86 173.60 408.00 184.00 C 408.14 194.40 407.95 205.50 408.00 216.00 C 408.05 226.50 408.00 237.51 408.00 248.00 C 408.00 258.49 408.06 268.53 408.00 279.00 C 407.94 289.47 408.16 300.57 408.00 311.00 C 407.84 321.43 408.36 332.78 408.00 343.00 C 407.64 353.22 408.80 365.28 408.00 375.00 C 407.20 384.72 413.37 389.87 409.00 395.00
C 410.89 396.91 410.58 397.79 410.00 400.00
M 412.00 395.00 
C 412.74 395.74 411.18 394.18 412.00 395.00 Z"/>
</g>
<g fill="None" fill-opacity="0.0" stroke="#4C56C2" stroke-opacity="1.00" stroke-width="0.3"><path d="
M 333.00 128.00 
C 338.28 126.89 332.74 130.22 331.00 131.00
C 333.10 145.31 330.28 161.38 331.00 180.00 C 331.72 198.62 330.67 219.81 331.00 239.00 C 331.33 258.19 330.85 278.55 331.00 298.00 C 331.15 317.45 330.92 337.45 331.00 357.00 C 331.08 376.55 330.94 396.42 331.00 416.00
C 334.61 416.88 339.17 416.65 342.00 419.00
C 348.00 419.00 354.00 419.00 360.00 419.00
C 360.62 416.08 358.29 409.41 359.00 403.00 C 359.71 396.59 358.70 389.65 359.00 383.00 C 359.30 376.35 358.86 368.73 359.00 362.00 C 359.14 355.27 358.93 348.74 359.00 342.00 C 359.07 335.26 358.97 328.80 359.00 322.00 C 359.03 315.20 358.99 307.83 359.00 301.00 C 359.01 294.17 358.99 287.86 359.00 281.00 C 359.01 274.14 358.99 266.88 359.00 260.00 C 359.01 253.12 358.98 246.94 359.00 240.00 C 359.02 233.06 358.96 227.18 359.00 220.00 C 359.04 212.82 358.91 206.60 359.00 199.00 C 359.09 191.40 358.79 187.62 359.00 179.00 C 359.21 170.38 358.55 168.61 359.00 158.00 C 359.45 147.39 357.94 131.04 360.00 123.00
C 354.92 121.34 349.39 122.49 344.00 122.00
C 340.92 124.29 336.36 125.81 333.00 128.00 Z"/>
</g>
<g fill="None" fill-opacity="0.0" stroke="#F3CEFD" stroke-opacity="0.25" stroke-width="0.3"><path d="
M 439.00 134.00 
C 437.11 130.14 432.44 127.13 429.00 125.00
C 432.31 127.56 435.33 131.43 439.00 134.00 Z"/>
</g>
<g fill="None" fill-opacity="0.0" stroke="#2750B7" stroke-opacity="1.00" stroke-width="0.3"><path d="
M 290.00 348.00 
C 289.92 350.06 289.36 351.54 289.00 353.00
C 286.97 361.14 286.00 370.46 286.00 379.00
C 286.00 383.27 285.61 387.75 286.00 392.00
C 287.00 396.83 287.96 400.92 291.00 405.00
C 293.46 407.82 297.23 411.59 300.00 414.00
C 304.17 417.10 308.81 418.72 314.00 419.00
C 323.27 419.50 332.71 419.00 342.00 419.00
C 339.17 416.65 334.61 416.88 331.00 416.00
C 330.94 396.42 331.08 376.55 331.00 357.00 C 330.92 337.45 331.15 317.45 331.00 298.00 C 330.85 278.55 331.33 258.19 331.00 239.00 C 330.67 219.81 331.72 198.62 331.00 180.00 C 330.28 161.38 333.10 145.31 331.00 131.00
C 332.74 130.22 338.28 126.89 333.00 128.00
C 310.39 142.73 312.87 167.76 309.33 192.33 C 305.79 216.90 302.74 245.74 299.98 270.98 C 297.21 296.22 291.03 322.38 290.00 348.00 Z"/>
</g>
<g fill="None" fill-opacity="0.0" stroke="#9FB5DD" stroke-opacity="0.42" stroke-width="0.3"><path d="
M 111.00 138.00 
C 111.38 136.29 111.93 134.34 112.00 132.00
C 111.85 133.28 111.22 136.10 111.00 138.00 Z"/>
</g>
<g fill="None" fill-opacity="0.0" stroke="#EAC4F0" stroke-opacity="0.37" stroke-width="0.3"><path d="
M 442.00 139.00 
C 441.52 137.22 440.42 136.04 439.00 135.00
C 439.48 136.79 440.58 137.96 442.00 139.00 Z"/>
</g>
<g fill="None" fill-opacity="0.0" stroke="#EDC2F6" stroke-opacity="0.35" stroke-width="0.3"><path d="
M 444.00 144.00 
C 443.48 142.27 443.27 141.24 442.00 140.00
C 442.12 141.97 443.39 142.57 444.00 144.00 Z"/>
</g>
<g fill="None" fill-opacity="0.0" stroke="#FFE2FF" stroke-opacity="0.05" stroke-width="0.3"><path d="
M 445.00 160.00 
C 445.28 157.13 445.43 153.99 445.00 151.00
C 445.11 153.99 445.00 157.01 445.00 160.00 Z"/>
</g>
<g fill="None" fill-opacity="0.0" stroke="#9BB5E0" stroke-opacity="0.43" stroke-width="0.3"><path d="
M 107.00 170.00 
C 107.38 168.29 107.93 166.34 108.00 164.00
C 107.85 165.28 107.22 168.10 107.00 170.00 Z"/>
</g>
<g fill="None" fill-opacity="0.0" stroke="#DFBDEC" stroke-opacity="0.44" stroke-width="0.3"><path d="
M 436.00 232.00 
C 436.15 230.47 436.75 227.16 437.00 225.00
C 436.58 226.99 436.05 229.36 436.00 232.00 Z"/>
</g>
<g fill="None" fill-opacity="0.0" stroke="#CEEDFF" stroke-opacity="0.10" stroke-width="0.3"><path d="
M 91.00 312.00 
C 91.00 308.00 91.00 304.00 91.00 300.00
C 90.64 303.76 89.31 308.03 91.00 312.00 Z"/>
</g>
<g fill="None" fill-opacity="0.0" stroke="#9FBED9" stroke-opacity="0.35" stroke-width="0.3"><path d="
M 92.00 318.00 
C 91.75 316.43 91.35 315.14 91.00 314.00
C 90.94 315.83 91.62 316.76 92.00 318.00 Z"/>
</g>
<g fill="None" fill-opacity="0.0" stroke="#DAC2EE" stroke-opacity="0.40" stroke-width="0.3"><path d="
M 424.00 328.00 
C 424.15 326.47 424.75 323.16 425.00 321.00
C 424.58 322.99 424.05 325.36 424.00 328.00 Z"/>
</g>
<g fill="None" fill-opacity="0.0" stroke="#8464CB" stroke-opacity="0.97" stroke-width="0.3"><path d="
M 174.00 349.00 
C 175.33 349.00 176.67 349.00 178.00 349.00
C 215.00 349.00 252.00 349.00 289.00 349.00
C 289.12 350.32 288.84 351.69 289.00 353.00
C 289.36 351.54 289.92 350.06 290.00 348.00
C 253.33 348.00 216.67 348.00 180.00 348.00
C 178.00 348.00 176.00 348.00 174.00 348.00
C 174.00 348.00 173.78 348.87 174.00 349.00 Z"/>
</g>
<g fill="None" fill-opacity="0.0" stroke="#FEFFFF" stroke-opacity="0.02" stroke-width="0.3"><path d="
M 178.00 349.00 
C 176.67 349.00 175.33 349.00 174.00 349.00
C 158.74 349.00 143.23 349.83 128.00 349.00
C 143.21 351.47 162.68 350.48 178.00 349.00 Z"/>
</g>
<g fill="None" fill-opacity="0.0" stroke="#D9C4ED" stroke-opacity="0.39" stroke-width="0.3"><path d="
M 420.00 360.00 
C 420.15 358.47 420.75 355.16 421.00 353.00
C 420.58 354.99 420.05 357.36 420.00 360.00 Z"/>
</g>
<g fill="None" fill-opacity="0.0" stroke="#C0DBF5" stroke-opacity="0.20" stroke-width="0.3"><path d="
M 286.00 392.00 
C 285.61 387.75 286.00 383.27 286.00 379.00
C 285.60 383.16 285.10 387.68 286.00 392.00 Z"/>
</g>
<g fill="None" fill-opacity="0.0" stroke="#9670C5" stroke-opacity="1.00" stroke-width="0.3"><path d="
M 412.00 395.00 
C 411.18 394.18 412.74 395.74 412.00 395.00 Z"/>
</g>
<g fill="None" fill-opacity="0.0" stroke="#A0BDEA" stroke-opacity="0.35" stroke-width="0.3"><path d="
M 300.00 414.00 
C 297.23 411.59 293.46 407.82 291.00 405.00
C 293.44 408.28 296.67 411.52 300.00 414.00 Z"/>
</g>
<g fill="None" fill-opacity="0.0" stroke="#F0DCFB" stroke-opacity="0.16" stroke-width="0.3"><path d="
M 399.00 412.00 
C 402.15 409.96 404.61 408.03 407.00 405.00
C 404.80 407.38 401.46 410.00 399.00 412.00 Z"/>
</g>
<g fill="None" fill-opacity="0.0" stroke="#D3D6FF" stroke-opacity="0.22" stroke-width="0.3"><path d="
M 381.00 419.00 
C 374.09 419.51 366.94 419.00 360.00 419.00
C 354.00 419.00 348.00 419.00 342.00 419.00
C 332.71 419.00 323.27 419.50 314.00 419.00
C 333.17 422.11 361.81 422.57 381.00 419.00 Z"/>
</g>
<g fill="#000000" fill-opacity="0.00" stroke="None">
<path d="
M 0.00 500.00 
L 500.00 500.00
L 500.00 0.00
L 0.00 0.00
L 0.00 500.00
M 229.00 52.00 
C 233.32 53.36 237.26 55.22 241.00 58.00
C 244.67 60.73 248.31 64.39 251.00 68.00
C 255.12 73.53 257.63 80.11 258.00 87.00
C 258.69 91.26 258.40 95.87 258.00 100.00
C 258.00 105.79 258.08 113.69 256.00 119.00
C 264.44 117.34 276.36 121.26 286.00 120.00 C 295.64 118.74 307.22 120.29 317.00 120.00 C 326.78 119.71 338.10 119.05 347.00 121.00
C 348.00 121.00 349.00 121.00 350.00 121.00
C 360.29 118.74 372.91 120.16 384.00 120.00 C 395.09 119.84 407.73 119.16 418.00 121.00
C 422.46 121.80 425.12 122.60 429.00 125.00
C 432.44 127.13 437.11 130.14 439.00 134.00
C 439.20 134.40 439.00 135.00 439.00 135.00
C 440.42 136.04 441.52 137.22 442.00 139.00
C 442.13 139.47 442.00 140.00 442.00 140.00
C 443.27 141.24 443.48 142.27 444.00 144.00
C 444.73 146.45 444.90 148.30 445.00 151.00
C 445.43 153.99 445.28 157.13 445.00 160.00
C 445.00 181.73 439.51 203.67 437.00 225.00
C 436.75 227.16 436.15 230.47 436.00 232.00
C 435.40 261.76 428.45 291.68 425.00 321.00
C 424.75 323.16 424.15 326.47 424.00 328.00
C 423.83 336.62 421.98 344.70 421.00 353.00
C 420.75 355.16 420.15 358.47 420.00 360.00
C 419.71 374.30 417.77 388.45 410.00 400.00
C 409.04 401.43 408.21 403.47 407.00 405.00
C 404.61 408.03 402.15 409.96 399.00 412.00
C 394.72 414.76 390.83 416.70 386.00 418.00
C 384.20 418.48 383.01 418.85 381.00 419.00
C 361.81 422.57 333.17 422.11 314.00 419.00
C 308.81 418.72 304.17 417.10 300.00 414.00
C 296.67 411.52 293.44 408.28 291.00 405.00
C 287.96 400.92 287.00 396.83 286.00 392.00
C 285.10 387.68 285.60 383.16 286.00 379.00
C 286.00 370.46 286.97 361.14 289.00 353.00
C 288.84 351.69 289.12 350.32 289.00 349.00
C 252.00 349.00 215.00 349.00 178.00 349.00
C 162.68 350.48 143.21 351.47 128.00 349.00
C 111.95 348.13 94.59 334.22 92.00 318.00
C 91.62 316.76 90.94 315.83 91.00 314.00
C 91.02 313.50 91.00 312.50 91.00 312.00
C 89.31 308.03 90.64 303.76 91.00 300.00
C 91.00 278.01 97.17 256.62 98.93 234.93 C 100.69 213.23 104.46 191.52 107.00 170.00
C 107.22 168.10 107.85 165.28 108.00 164.00
C 108.25 155.07 109.97 146.68 111.00 138.00
C 111.22 136.10 111.85 133.28 112.00 132.00
C 112.32 120.44 114.53 109.28 116.00 98.00
C 116.25 96.12 116.66 94.37 117.00 93.00
C 117.24 91.19 117.48 89.74 118.00 88.00
C 118.49 86.36 119.35 85.31 120.00 84.00
C 120.86 81.61 121.73 79.30 123.00 77.00
C 126.21 71.18 130.80 66.27 136.00 62.00
C 137.23 60.99 138.62 59.72 140.00 59.00
C 140.39 58.79 141.00 59.00 141.00 59.00
C 142.87 56.01 146.95 55.20 150.00 54.00
C 152.26 53.11 153.54 52.39 156.00 52.00
C 157.22 51.63 158.15 50.76 160.00 51.00
C 160.49 51.06 161.00 51.00 161.00 51.00
C 167.07 46.51 180.05 51.13 188.00 50.00 C 195.95 48.87 207.71 50.00 216.00 50.00
C 220.92 50.00 224.53 50.59 229.00 52.00 Z"/>
</g>
<g fill="#7D5FD0" fill-opacity="1.00" stroke="None">
<path d="
M 161.00 51.00 
C 170.00 51.00 179.00 51.00 188.00 51.00
C 183.65 55.44 186.60 64.87 186.00 73.00 C 185.40 81.13 186.32 91.55 186.00 100.00 C 185.68 108.45 186.26 118.60 186.00 127.00 C 185.74 135.40 186.37 144.97 186.00 153.00 C 185.63 161.03 186.00 167.61 185.22 175.22 C 184.44 182.84 184.22 190.04 183.00 198.00
C 185.20 197.26 182.69 193.67 185.00 193.00
C 188.46 171.22 187.47 135.65 209.00 123.00
C 207.43 123.31 205.88 124.69 204.00 124.00
C 204.07 121.13 205.80 117.17 201.00 118.00
C 207.73 110.69 205.27 96.38 205.00 86.00 C 204.73 75.62 207.83 62.70 204.00 55.00
C 206.94 50.57 212.19 51.58 216.00 50.00
C 207.71 50.00 195.95 48.87 188.00 50.00 C 180.05 51.13 167.07 46.51 161.00 51.00 Z"/>
</g>
<g fill="#9C64D9" fill-opacity="1.00" stroke="None">
<path d="
M 209.00 123.00 
C 223.35 120.15 238.89 121.00 254.00 121.00
C 249.31 117.53 235.39 122.27 236.78 113.78 C 238.17 105.29 234.78 100.54 236.00 91.00 C 237.22 81.46 235.08 73.41 236.00 64.00
C 232.76 64.52 232.88 59.48 235.00 57.00
C 233.03 55.28 230.05 54.63 229.00 52.00
C 224.53 50.59 220.92 50.00 216.00 50.00
C 212.19 51.58 206.94 50.57 204.00 55.00
C 207.83 62.70 204.73 75.62 205.00 86.00 C 205.27 96.38 207.73 110.69 201.00 118.00
C 205.80 117.17 204.07 121.13 204.00 124.00
C 205.88 124.69 207.43 123.31 209.00 123.00 Z"/>
</g>
<g fill="#B8BBE3" fill-opacity="0.38" stroke="None">
<path d="
M 156.00 52.00 
C 157.88 51.70 158.66 52.37 160.00 51.00
C 158.15 50.76 157.22 51.63 156.00 52.00 Z"/>
</g>
<g fill="#5B59C6" fill-opacity="1.00" stroke="None">
<path d="
M 156.00 52.00 
C 153.54 52.39 152.26 53.11 150.00 54.00
C 148.78 54.67 147.19 56.39 146.00 57.00
C 147.68 56.58 149.33 56.58 151.00 56.00
C 150.81 59.90 149.47 60.59 145.00 60.00
C 147.70 61.79 149.84 60.83 146.00 63.00
C 152.36 65.37 148.17 76.24 149.00 84.00 C 149.83 91.76 148.62 101.74 149.00 110.00 C 149.38 118.26 148.83 127.52 149.00 136.00 C 149.17 144.48 148.92 153.42 149.00 162.00 C 149.08 170.58 148.95 179.38 149.00 188.00 C 149.05 196.62 148.95 205.38 149.00 214.00 C 149.05 222.62 148.92 231.40 149.00 240.00 C 149.08 248.60 148.84 257.47 149.00 266.00 C 149.16 274.53 148.66 283.64 149.00 292.00 C 149.34 300.36 148.24 310.00 149.00 318.00 C 149.76 326.00 146.71 336.68 150.00 340.00
C 147.65 343.06 147.17 342.38 151.00 345.00
C 148.22 345.26 146.11 347.79 143.00 347.00
C 152.42 349.32 163.82 347.35 174.00 348.00
C 176.00 348.00 178.00 348.00 180.00 348.00
C 159.19 344.06 165.15 319.25 167.78 303.78 C 170.41 288.31 172.81 265.02 176.33 248.33 C 179.85 231.64 182.24 210.33 185.00 193.00
C 182.69 193.67 185.20 197.26 183.00 198.00
C 184.22 190.04 184.44 182.84 185.22 175.22 C 186.00 167.61 185.63 161.03 186.00 153.00 C 186.37 144.97 185.74 135.40 186.00 127.00 C 186.26 118.60 185.68 108.45 186.00 100.00 C 186.32 91.55 185.40 81.13 186.00 73.00 C 186.60 64.87 183.65 55.44 188.00 51.00
C 179.00 51.00 170.00 51.00 161.00 51.00
C 161.00 51.00 160.49 51.06 160.00 51.00
C 158.66 52.37 157.88 51.70 156.00 52.00 Z"/>
</g>
<g fill="#BB6DE1" fill-opacity="0.98" stroke="None">
<path d="
M 254.00 121.00 
C 254.50 121.00 255.00 121.00 255.00 121.00
C 254.66 121.42 256.15 118.61 256.00 119.00
C 258.08 113.69 258.00 105.79 258.00 100.00
C 258.00 95.69 258.23 91.30 258.00 87.00
C 257.63 80.11 255.12 73.53 251.00 68.00
C 248.24 64.84 244.11 60.71 241.00 58.00
C 237.26 55.22 233.32 53.36 229.00 52.00
C 230.05 54.63 233.03 55.28 235.00 57.00
C 232.88 59.48 232.76 64.52 236.00 64.00
C 235.08 73.41 237.22 81.46 236.00 91.00 C 234.78 100.54 238.17 105.29 236.78 113.78 C 235.39 122.27 249.31 117.53 254.00 121.00 Z"/>
</g>
<g fill="#BBC0ED" fill-opacity="0.33" stroke="None">
<path d="
M 141.00 59.00 
C 142.61 58.19 144.50 57.77 146.00 57.00
C 147.19 56.39 148.78 54.67 150.00 54.00
C 146.95 55.20 142.87 56.01 141.00 59.00 Z"/>
</g>
<g fill="#2F52B8" fill-opacity="0.99" stroke="None">
<path d="
M 146.00 57.00 
C 144.50 57.77 142.61 58.19 141.00 59.00
C 141.00 59.00 140.39 58.79 140.00 59.00
C 138.56 61.06 136.82 62.44 135.00 64.00
C 130.54 67.82 126.17 72.42 123.00 77.00
C 121.73 79.30 120.86 81.61 120.00 84.00
C 119.49 85.41 118.48 86.86 118.00 88.00
C 117.48 89.74 117.24 91.19 117.00 93.00
C 116.75 94.89 116.34 96.63 116.00 98.00
C 114.53 109.28 112.32 120.44 112.00 132.00
C 111.93 134.34 111.38 136.29 111.00 138.00
C 109.97 146.68 108.25 155.07 108.00 164.00
C 107.93 166.34 107.38 168.29 107.00 170.00
C 104.46 191.52 100.69 213.23 98.93 234.93 C 97.17 256.62 91.00 278.01 91.00 300.00
C 91.00 304.00 91.00 308.00 91.00 312.00
C 91.00 312.50 91.02 313.50 91.00 314.00
C 91.35 315.14 91.75 316.43 92.00 318.00
C 94.59 334.22 111.95 348.13 128.00 349.00
C 143.23 349.83 158.74 349.00 174.00 349.00
C 173.78 348.87 174.00 348.00 174.00 348.00
C 163.82 347.35 152.42 349.32 143.00 347.00
C 146.11 347.79 148.22 345.26 151.00 345.00
C 147.17 342.38 147.65 343.06 150.00 340.00
C 146.71 336.68 149.76 326.00 149.00 318.00 C 148.24 310.00 149.34 300.36 149.00 292.00 C 148.66 283.64 149.16 274.53 149.00 266.00 C 148.84 257.47 149.08 248.60 149.00 240.00 C 148.92 231.40 149.05 222.62 149.00 214.00 C 148.95 205.38 149.05 196.62 149.00 188.00 C 148.95 179.38 149.08 170.58 149.00 162.00 C 148.92 153.42 149.17 144.48 149.00 136.00 C 148.83 127.52 149.38 118.26 149.00 110.00 C 148.62 101.74 149.83 91.76 149.00 84.00 C 148.17 76.24 152.36 65.37 146.00 63.00
C 149.84 60.83 147.70 61.79 145.00 60.00
C 149.47 60.59 150.81 59.90 151.00 56.00
C 149.33 56.58 147.68 56.58 146.00 57.00 Z"/>
</g>
<g fill="#E8C5F4" fill-opacity="0.33" stroke="None">
<path d="
M 251.00 68.00 
C 248.31 64.39 244.67 60.73 241.00 58.00
C 244.11 60.71 248.24 64.84 251.00 68.00 Z"/>
</g>
<g fill="#99A5D9" fill-opacity="0.53" stroke="None">
<path d="
M 136.00 62.00 
C 135.57 62.50 135.39 63.58 135.00 64.00
C 136.82 62.44 138.56 61.06 140.00 59.00
C 138.62 59.72 137.23 60.99 136.00 62.00 Z"/>
</g>
<g fill="#C7D3F5" fill-opacity="0.23" stroke="None">
<path d="
M 123.00 77.00 
C 126.17 72.42 130.54 67.82 135.00 64.00
C 135.39 63.58 135.57 62.50 136.00 62.00
C 130.80 66.27 126.21 71.18 123.00 77.00 Z"/>
</g>
<g fill="#AFC8EC" fill-opacity="0.30" stroke="None">
<path d="
M 118.00 88.00 
C 118.48 86.86 119.49 85.41 120.00 84.00
C 119.35 85.31 118.49 86.36 118.00 88.00 Z"/>
</g>
<g fill="#FFE4FF" fill-opacity="0.08" stroke="None">
<path d="
M 258.00 100.00 
C 258.40 95.87 258.69 91.26 258.00 87.00
C 258.23 91.30 258.00 95.69 258.00 100.00 Z"/>
</g>
<g fill="#A6BFEF" fill-opacity="0.36" stroke="None">
<path d="
M 116.00 98.00 
C 116.34 96.63 116.75 94.89 117.00 93.00
C 116.66 94.37 116.25 96.12 116.00 98.00 Z"/>
</g>
<g fill="#D2B3FF" fill-opacity="0.43" stroke="None">
<path d="
M 255.00 121.00 
C 284.67 121.00 314.33 121.00 344.00 121.00
C 345.00 121.00 346.00 121.00 347.00 121.00
C 338.10 119.05 326.78 119.71 317.00 120.00 C 307.22 120.29 295.64 118.74 286.00 120.00 C 276.36 121.26 264.44 117.34 256.00 119.00
C 256.15 118.61 254.66 121.42 255.00 121.00 Z"/>
</g>
<g fill="#DACCFE" fill-opacity="0.30" stroke="None">
<path d="
M 350.00 121.00 
C 364.00 121.00 378.00 121.00 392.00 121.00
C 400.67 121.00 409.33 121.00 418.00 121.00
C 407.73 119.16 395.09 119.84 384.00 120.00 C 372.91 120.16 360.29 118.74 350.00 121.00 Z"/>
</g>
<g fill="#8B52FE" fill-opacity="1.00" stroke="None">
<path d="
M 209.00 123.00 
C 187.47 135.65 188.46 171.22 185.00 193.00
C 182.24 210.33 179.85 231.64 176.33 248.33 C 172.81 265.02 170.41 288.31 167.78 303.78 C 165.15 319.25 159.19 344.06 180.00 348.00
C 216.67 348.00 253.33 348.00 290.00 348.00
C 291.03 322.38 297.21 296.22 299.98 270.98 C 302.74 245.74 305.79 216.90 309.33 192.33 C 312.87 167.76 310.39 142.73 333.00 128.00
C 336.36 125.81 340.92 124.29 344.00 122.00
C 344.24 121.82 344.00 121.00 344.00 121.00
C 314.33 121.00 284.67 121.00 255.00 121.00
C 255.00 121.00 254.50 121.00 254.00 121.00
C 238.89 121.00 223.35 120.15 209.00 123.00 Z"/>
</g>
<g fill="#715DCC" fill-opacity="1.00" stroke="None">
<path d="
M 344.00 122.00 
C 349.39 122.49 354.92 121.34 360.00 123.00
C 357.94 131.04 359.45 147.39 359.00 158.00 C 358.55 168.61 359.21 170.38 359.00 179.00 C 358.79 187.62 359.09 191.40 359.00 199.00 C 358.91 206.60 359.04 212.82 359.00 220.00 C 358.96 227.18 359.02 233.06 359.00 240.00 C 358.98 246.94 359.01 253.12 359.00 260.00 C 358.99 266.88 359.01 274.14 359.00 281.00 C 358.99 287.86 359.01 294.17 359.00 301.00 C 358.99 307.83 359.03 315.20 359.00 322.00 C 358.97 328.80 359.07 335.26 359.00 342.00 C 358.93 348.74 359.14 355.27 359.00 362.00 C 358.86 368.73 359.30 376.35 359.00 383.00 C 358.70 389.65 359.71 396.59 359.00 403.00 C 358.29 409.41 360.62 416.08 360.00 419.00
C 366.94 419.00 374.09 419.51 381.00 419.00
C 383.01 418.85 384.20 418.48 386.00 418.00
C 388.30 417.07 390.34 414.48 393.00 414.00
C 386.45 405.17 392.00 394.67 391.00 381.00 C 390.00 367.33 391.46 352.03 391.00 338.00 C 390.54 323.97 391.24 309.18 391.00 295.00 C 390.76 280.82 391.18 266.23 391.00 252.00 C 390.82 237.77 391.23 223.21 391.00 209.00 C 390.77 194.79 391.44 180.11 391.00 166.00 C 390.56 151.89 392.80 136.43 389.00 124.00
C 391.21 124.71 392.46 123.10 392.00 121.00
C 378.00 121.00 364.00 121.00 350.00 121.00
C 349.00 121.00 348.00 121.00 347.00 121.00
C 346.00 121.00 345.00 121.00 344.00 121.00
C 344.00 121.00 344.24 121.82 344.00 122.00 Z"/>
</g>
<g fill="#9162D5" fill-opacity="1.00" stroke="None">
<path d="
M 386.00 418.00 
C 390.83 416.70 394.72 414.76 399.00 412.00
C 401.46 410.00 404.80 407.38 407.00 405.00
C 408.21 403.47 409.04 401.43 410.00 400.00
C 410.58 397.79 410.89 396.91 409.00 395.00
C 413.37 389.87 407.20 384.72 408.00 375.00 C 408.80 365.28 407.64 353.22 408.00 343.00 C 408.36 332.78 407.84 321.43 408.00 311.00 C 408.16 300.57 407.94 289.47 408.00 279.00 C 408.06 268.53 408.00 258.49 408.00 248.00 C 408.00 237.51 408.05 226.50 408.00 216.00 C 407.95 205.50 408.14 194.40 408.00 184.00 C 407.86 173.60 408.32 162.12 408.00 152.00 C 407.68 141.88 408.83 131.51 408.00 124.00
C 411.25 123.07 415.69 123.73 418.00 121.00
C 409.33 121.00 400.67 121.00 392.00 121.00
C 392.46 123.10 391.21 124.71 389.00 124.00
C 392.80 136.43 390.56 151.89 391.00 166.00 C 391.44 180.11 390.77 194.79 391.00 209.00 C 391.23 223.21 390.82 237.77 391.00 252.00 C 391.18 266.23 390.76 280.82 391.00 295.00 C 391.24 309.18 390.54 323.97 391.00 338.00 C 391.46 352.03 390.00 367.33 391.00 381.00 C 392.00 394.67 386.45 405.17 393.00 414.00
C 390.34 414.48 388.30 417.07 386.00 418.00 Z"/>
</g>
<g fill="#AD6ADD" fill-opacity="0.98" stroke="None">
<path d="
M 410.00 400.00 
C 417.77 388.45 419.71 374.30 420.00 360.00
C 420.05 357.36 420.58 354.99 421.00 353.00
C 421.98 344.70 423.83 336.62 424.00 328.00
C 424.05 325.36 424.58 322.99 425.00 321.00
C 428.45 291.68 435.40 261.76 436.00 232.00
C 436.05 229.36 436.58 226.99 437.00 225.00
C 439.51 203.67 445.00 181.73 445.00 160.00
C 445.00 157.01 445.11 153.99 445.00 151.00
C 444.90 148.30 444.73 146.45 444.00 144.00
C 443.39 142.57 442.12 141.97 442.00 140.00
C 442.00 140.00 442.13 139.47 442.00 139.00
C 440.58 137.96 439.48 136.79 439.00 135.00
C 439.00 135.00 439.20 134.40 439.00 134.00
C 435.33 131.43 432.31 127.56 429.00 125.00
C 425.12 122.60 422.46 121.80 418.00 121.00
C 415.69 123.73 411.25 123.07 408.00 124.00
C 408.83 131.51 407.68 141.88 408.00 152.00 C 408.32 162.12 407.86 173.60 408.00 184.00 C 408.14 194.40 407.95 205.50 408.00 216.00 C 408.05 226.50 408.00 237.51 408.00 248.00 C 408.00 258.49 408.06 268.53 408.00 279.00 C 407.94 289.47 408.16 300.57 408.00 311.00 C 407.84 321.43 408.36 332.78 408.00 343.00 C 407.64 353.22 408.80 365.28 408.00 375.00 C 407.20 384.72 413.37 389.87 409.00 395.00
C 410.89 396.91 410.58 397.79 410.00 400.00
M 412.00 395.00 
C 412.74 395.74 411.18 394.18 412.00 395.00 Z"/>
</g>
<g fill="#4C56C2" fill-opacity="1.00" stroke="None">
<path d="
M 333.00 128.00 
C 338.28 126.89 332.74 130.22 331.00 131.00
C 333.10 145.31 330.28 161.38 331.00 180.00 C 331.72 198.62 330.67 219.81 331.00 239.00 C 331.33 258.19 330.85 278.55 331.00 298.00 C 331.15 317.45 330.92 337.45 331.00 357.00 C 331.08 376.55 330.94 396.42 331.00 416.00
C 334.61 416.88 339.17 416.65 342.00 419.00
C 348.00 419.00 354.00 419.00 360.00 419.00
C 360.62 416.08 358.29 409.41 359.00 403.00 C 359.71 396.59 358.70 389.65 359.00 383.00 C 359.30 376.35 358.86 368.73 359.00 362.00 C 359.14 355.27 358.93 348.74 359.00 342.00 C 359.07 335.26 358.97 328.80 359.00 322.00 C 359.03 315.20 358.99 307.83 359.00 301.00 C 359.01 294.17 358.99 287.86 359.00 281.00 C 359.01 274.14 358.99 266.88 359.00 260.00 C 359.01 253.12 358.98 246.94 359.00 240.00 C 359.02 233.06 358.96 227.18 359.00 220.00 C 359.04 212.82 358.91 206.60 359.00 199.00 C 359.09 191.40 358.79 187.62 359.00 179.00 C 359.21 170.38 358.55 168.61 359.00 158.00 C 359.45 147.39 357.94 131.04 360.00 123.00
C 354.92 121.34 349.39 122.49 344.00 122.00
C 340.92 124.29 336.36 125.81 333.00 128.00 Z"/>
</g>
<g fill="#F3CEFD" fill-opacity="0.25" stroke="None">
<path d="
M 439.00 134.00 
C 437.11 130.14 432.44 127.13 429.00 125.00
C 432.31 127.56 435.33 131.43 439.00 134.00 Z"/>
</g>
<g fill="#2750B7" fill-opacity="1.00" stroke="None">
<path d="
M 290.00 348.00 
C 289.92 350.06 289.36 351.54 289.00 353.00
C 286.97 361.14 286.00 370.46 286.00 379.00
C 286.00 383.27 285.61 387.75 286.00 392.00
C 287.00 396.83 287.96 400.92 291.00 405.00
C 293.46 407.82 297.23 411.59 300.00 414.00
C 304.17 417.10 308.81 418.72 314.00 419.00
C 323.27 419.50 332.71 419.00 342.00 419.00
C 339.17 416.65 334.61 416.88 331.00 416.00
C 330.94 396.42 331.08 376.55 331.00 357.00 C 330.92 337.45 331.15 317.45 331.00 298.00 C 330.85 278.55 331.33 258.19 331.00 239.00 C 330.67 219.81 331.72 198.62 331.00 180.00 C 330.28 161.38 333.10 145.31 331.00 131.00
C 332.74 130.22 338.28 126.89 333.00 128.00
C 310.39 142.73 312.87 167.76 309.33 192.33 C 305.79 216.90 302.74 245.74 299.98 270.98 C 297.21 296.22 291.03 322.38 290.00 348.00 Z"/>
</g>
<g fill="#9FB5DD" fill-opacity="0.42" stroke="None">
<path d="
M 111.00 138.00 
C 111.38 136.29 111.93 134.34 112.00 132.00
C 111.85 133.28 111.22 136.10 111.00 138.00 Z"/>
</g>
<g fill="#EAC4F0" fill-opacity="0.37" stroke="None">
<path d="
M 442.00 139.00 
C 441.52 137.22 440.42 136.04 439.00 135.00
C 439.48 136.79 440.58 137.96 442.00 139.00 Z"/>
</g>
<g fill="#EDC2F6" fill-opacity="0.35" stroke="None">
<path d="
M 444.00 144.00 
C 443.48 142.27 443.27 141.24 442.00 140.00
C 442.12 141.97 443.39 142.57 444.00 144.00 Z"/>
</g>
<g fill="#FFE2FF" fill-opacity="0.05" stroke="None">
<path d="
M 445.00 160.00 
C 445.28 157.13 445.43 153.99 445.00 151.00
C 445.11 153.99 445.00 157.01 445.00 160.00 Z"/>
</g>
<g fill="#9BB5E0" fill-opacity="0.43" stroke="None">
<path d="
M 107.00 170.00 
C 107.38 168.29 107.93 166.34 108.00 164.00
C 107.85 165.28 107.22 168.10 107.00 170.00 Z"/>
</g>
<g fill="#DFBDEC" fill-opacity="0.44" stroke="None">
<path d="
M 436.00 232.00 
C 436.15 230.47 436.75 227.16 437.00 225.00
C 436.58 226.99 436.05 229.36 436.00 232.00 Z"/>
</g>
<g fill="#CEEDFF" fill-opacity="0.10" stroke="None">
<path d="
M 91.00 312.00 
C 91.00 308.00 91.00 304.00 91.00 300.00
C 90.64 303.76 89.31 308.03 91.00 312.00 Z"/>
</g>
<g fill="#9FBED9" fill-opacity="0.35" stroke="None">
<path d="
M 92.00 318.00 
C 91.75 316.43 91.35 315.14 91.00 314.00
C 90.94 315.83 91.62 316.76 92.00 318.00 Z"/>
</g>
<g fill="#DAC2EE" fill-opacity="0.40" stroke="None">
<path d="
M 424.00 328.00 
C 424.15 326.47 424.75 323.16 425.00 321.00
C 424.58 322.99 424.05 325.36 424.00 328.00 Z"/>
</g>
<g fill="#8464CB" fill-opacity="0.97" stroke="None">
<path d="
M 174.00 349.00 
C 175.33 349.00 176.67 349.00 178.00 349.00
C 215.00 349.00 252.00 349.00 289.00 349.00
C 289.12 350.32 288.84 351.69 289.00 353.00
C 289.36 351.54 289.92 350.06 290.00 348.00
C 253.33 348.00 216.67 348.00 180.00 348.00
C 178.00 348.00 176.00 348.00 174.00 348.00
C 174.00 348.00 173.78 348.87 174.00 349.00 Z"/>
</g>
<g fill="#FEFFFF" fill-opacity="0.02" stroke="None">
<path d="
M 178.00 349.00 
C 176.67 349.00 175.33 349.00 174.00 349.00
C 158.74 349.00 143.23 349.83 128.00 349.00
C 143.21 351.47 162.68 350.48 178.00 349.00 Z"/>
</g>
<g fill="#D9C4ED" fill-opacity="0.39" stroke="None">
<path d="
M 420.00 360.00 
C 420.15 358.47 420.75 355.16 421.00 353.00
C 420.58 354.99 420.05 357.36 420.00 360.00 Z"/>
</g>
<g fill="#C0DBF5" fill-opacity="0.20" stroke="None">
<path d="
M 286.00 392.00 
C 285.61 387.75 286.00 383.27 286.00 379.00
C 285.60 383.16 285.10 387.68 286.00 392.00 Z"/>
</g>
<g fill="#9670C5" fill-opacity="1.00" stroke="None">
<path d="
M 412.00 395.00 
C 411.18 394.18 412.74 395.74 412.00 395.00 Z"/>
</g>
<g fill="#A0BDEA" fill-opacity="0.35" stroke="None">
<path d="
M 300.00 414.00 
C 297.23 411.59 293.46 407.82 291.00 405.00
C 293.44 408.28 296.67 411.52 300.00 414.00 Z"/>
</g>
<g fill="#F0DCFB" fill-opacity="0.16" stroke="None">
<path d="
M 399.00 412.00 
C 402.15 409.96 404.61 408.03 407.00 405.00
C 404.80 407.38 401.46 410.00 399.00 412.00 Z"/>
</g>
<g fill="#D3D6FF" fill-opacity="0.22" stroke="None">
<path d="
M 381.00 419.00 
C 374.09 419.51 366.94 419.00 360.00 419.00
C 354.00 419.00 348.00 419.00 342.00 419.00
C 332.71 419.00 323.27 419.50 314.00 419.00
C 333.17 422.11 361.81 422.57 381.00 419.00 Z"/>
</g>
</svg>