<?xml version="1.0" encoding="utf-8"?>
<!-- Generator: Adobe Illustrator 27.9.0, SVG Export Plug-In . SVG Version: 6.00 Build 0)  -->
<svg version="1.1" id="Layer_1" xmlns="http://www.w3.org/2000/svg" xmlns:xlink="http://www.w3.org/1999/xlink" x="0px" y="0px"
	 viewBox="0 0 136.5 84.5" style="enable-background:new 0 0 136.5 84.5;" xml:space="preserve">
<style type="text/css">
	.st0{fill:none;stroke:#A053CF;stroke-linecap:round;stroke-linejoin:round;}
	.st1{fill:url(#Vector_2_00000018916007914790784360000005793877923476756102_);}
	.st2{fill-rule:evenodd;clip-rule:evenodd;fill:url(#Subtract_00000122685212111204653170000016356585816780388506_);}
	.st3{fill:none;stroke:#A053CF;stroke-linecap:round;stroke-miterlimit:10;}
	.st4{fill-rule:evenodd;clip-rule:evenodd;fill:url(#Subtract_00000031200487158724215430000016244083103506246820_);}
	.st5{fill:url(#Vector_00000014616714615316500360000002782650852450723214_);}
	.st6{fill-rule:evenodd;clip-rule:evenodd;fill:url(#Subtract_00000036237421222881162960000003029692873398809013_);}
	.st7{fill:url(#Vector_00000182495326750728601210000017402597648132198298_);}
	.st8{fill:url(#Vector_00000122690851134054319750000003688513615569187734_);}
	.st9{fill:url(#Vector_00000030451431838235646520000004229508754735098526_);}
	.st10{fill:#A053CF;}
</style>
<g id="Group_5489">
	<path id="Vector" class="st0" d="M133.9,50.1V82c0,1.1-0.9,2-2,2h-26.1c-1.2,0-2.2-1-2.2-2.2V50.1c0-1.2,1-2.2,2.2-2.2h25.9
		C132.9,48,133.9,48.9,133.9,50.1z"/>
	
		<linearGradient id="Vector_2_00000029746145223901814080000002429132356159495053_" gradientUnits="userSpaceOnUse" x1="125.4758" y1="922.3578" x2="137.4031" y2="917.6011" gradientTransform="matrix(1 0 0 -1 0 996.9784)">
		<stop  offset="0.6214" style="stop-color:#A053CF"/>
		<stop  offset="1" style="stop-color:#EF59A5"/>
	</linearGradient>
	<path id="Vector_2" style="fill:url(#Vector_2_00000029746145223901814080000002429132356159495053_);" d="M135.5,78.7l-3.5-3.8
		l-4.2-4.4c-0.4,0.7-0.9,1.3-1.4,1.9c-0.5,0.6-1.1,1.1-1.7,1.5l6.5,6.9l1.2,1.3c1.2,1.3,2.8,1.5,3.7,0.6
		C136.9,81.7,136.6,79.9,135.5,78.7L135.5,78.7z"/>
	
		<linearGradient id="Subtract_00000036936792821813655460000005447258132499667864_" gradientUnits="userSpaceOnUse" x1="108.992" y1="936.1595" x2="128.4421" y2="927.5381" gradientTransform="matrix(1 0 0 -1 0 996.9784)">
		<stop  offset="0.6214" style="stop-color:#A053CF"/>
		<stop  offset="1" style="stop-color:#EF59A5"/>
	</linearGradient>
	
		<path id="Subtract" style="fill-rule:evenodd;clip-rule:evenodd;fill:url(#Subtract_00000036936792821813655460000005447258132499667864_);" d="
		M110.4,57.1c4.4-4.4,11.5-4.4,15.9,0c3.7,3.6,4.3,9.1,1.9,13.4c-0.1,0.2-0.3,0.4-0.4,0.7c-0.4,0.6-0.9,1.3-1.5,1.8s-1.1,1-1.7,1.4
		c-0.2,0.2-0.5,0.3-0.7,0.5c-4.3,2.4-9.8,1.8-13.5-1.9C106,68.5,106,61.4,110.4,57.1z M113.3,70.1c-2.8-2.8-2.8-7.4,0-10.2
		c2.8-2.8,7.4-2.8,10.3,0c2.8,2.8,2.8,7.4,0,10.2C120.7,72.9,116.1,72.9,113.3,70.1z"/>
	<path id="Vector_3" class="st0" d="M115.5,66l2.4,2.1l4.4-5.3"/>
</g>
<g id="Group_34573">
	<path id="Vector_00000052098699077022849980000000457714924156927891_" class="st3" d="M30.9,18.1h-4.3H18"/>
	
		<linearGradient id="Subtract_00000006666953207983720970000011657698237830762624_" gradientUnits="userSpaceOnUse" x1="-1.4906" y1="999.8278" x2="20.6212" y2="965.8073" gradientTransform="matrix(1 0 0 -1 0 996.9784)">
		<stop  offset="0.6214" style="stop-color:#A053CF"/>
		<stop  offset="1" style="stop-color:#EF59A5"/>
	</linearGradient>
	
		<path id="Subtract_00000088123565897026122880000005574873471629177252_" style="fill-rule:evenodd;clip-rule:evenodd;fill:url(#Subtract_00000006666953207983720970000011657698237830762624_);" d="
		M7.9,3.2c0.5,0,1,0.1,1.4,0.2l0.1,0c1,0.3,1.9,1,2.5,1.9c0.2,0.2,0.5,0.3,0.7,0.1c0.2-0.2,0.3-0.5,0.1-0.7
		c-0.6-0.9-1.5-1.6-2.5-2.1C11,1.1,12.6,0,14.5,0c1.1,0,2.2,0.4,3,1.1v4c0,0,0,0,0,0v25.9c0,0,0,0,0,0v4c-0.8,0.7-1.9,1.1-3,1.1
		c-1.9,0-3.5-1.1-4.3-2.7c1-0.4,1.8-1.2,2.5-2.1c0.2-0.2,0.1-0.5-0.1-0.7c-0.2-0.2-0.5-0.1-0.7,0.1c-0.6,0.9-1.5,1.5-2.5,1.9l-0.1,0
		C8.9,32.9,8.4,33,7.9,33c-2.7,0-4.8-2.3-4.8-5.1c0-0.5,0.1-0.9,0.2-1.3c0,0,0-0.1,0-0.1c0.3-1.1,0.9-2,1.7-2.7
		c0.2,1.3,0.9,2.5,2,3.3c0.2,0.2,0.5,0.1,0.7-0.1c0.2-0.2,0.1-0.5-0.1-0.7c-1-0.7-1.6-1.9-1.6-3.3c0-1.4,0.6-2.6,1.6-3.3
		c0.2-0.2,0.3-0.5,0.1-0.7c-0.2-0.2-0.5-0.3-0.7-0.1c-1.1,0.9-1.9,2.2-2,3.8c-1.1,0.7-2,1.8-2.5,3c-1.2-0.9-2-2.4-2-4.1
		c0-1.1,0.3-2.1,0.9-2.9h2.2c0.3,0,0.5-0.2,0.5-0.5c0-0.3-0.2-0.5-0.5-0.5H1.4c-0.6-0.8-0.9-1.8-0.9-2.9c0-1.7,0.8-3.2,2-4.1
		c0.5,1.3,1.3,2.3,2.5,3c0.1,1.6,0.9,2.9,2,3.8c0.2,0.2,0.5,0.1,0.7-0.1c0.2-0.2,0.1-0.5-0.1-0.7c-1-0.7-1.6-1.9-1.6-3.3
		c0-1.4,0.6-2.6,1.6-3.3c0.2-0.2,0.3-0.5,0.1-0.7C7.5,9,7.2,9,6.9,9.2c-1,0.8-1.7,1.9-2,3.3c-0.8-0.7-1.4-1.6-1.7-2.7
		c0,0,0-0.1,0-0.1C3.1,9.2,3.1,8.8,3.1,8.3C3.1,5.5,5.3,3.2,7.9,3.2z"/>
	<path id="Vector_2_00000176722037089472562620000014717760454721479041_" class="st3" d="M25.3,31.6h-4.5v-27h4.5"/>
	<path id="Vector_3_00000110457572913241442080000006632626989904897923_" class="st3" d="M28.9,24.2h-8V12h8"/>
	<path id="Vector_4" class="st3" d="M32.5,19.7c0.9,0,1.6-0.7,1.6-1.6c0-0.9-0.7-1.6-1.6-1.6c-0.9,0-1.6,0.7-1.6,1.6
		C30.9,19,31.6,19.7,32.5,19.7z"/>
	<path id="Vector_5" class="st3" d="M30.4,13.6c0.9,0,1.6-0.7,1.6-1.6c0-0.9-0.7-1.6-1.6-1.6c-0.9,0-1.6,0.7-1.6,1.6
		C28.9,12.9,29.6,13.6,30.4,13.6z"/>
	<path id="Vector_6" class="st3" d="M30.4,25.9c0.9,0,1.6-0.7,1.6-1.6c0-0.9-0.7-1.6-1.6-1.6c-0.9,0-1.6,0.7-1.6,1.6
		C28.9,25.1,29.6,25.9,30.4,25.9z"/>
	<path id="Vector_7" class="st3" d="M26.9,33.2c0.9,0,1.6-0.7,1.6-1.6c0-0.9-0.7-1.6-1.6-1.6s-1.6,0.7-1.6,1.6
		C25.3,32.5,26,33.2,26.9,33.2z"/>
	<path id="Vector_8" class="st3" d="M26.9,6.2c0.9,0,1.6-0.7,1.6-1.6S27.8,3,26.9,3s-1.6,0.7-1.6,1.6S26,6.2,26.9,6.2z"/>
</g>
<g id="Frame_34780">
	<g id="Group_5488">
		
			<linearGradient id="Vector_00000079455612223263543690000009931497007524818310_" gradientUnits="userSpaceOnUse" x1="60.0459" y1="1001.8494" x2="86.296" y2="972.5994" gradientTransform="matrix(1 0 0 -1 0 996.9784)">
			<stop  offset="0.6214" style="stop-color:#A053CF"/>
			<stop  offset="1" style="stop-color:#EF59A5"/>
		</linearGradient>
		
			<path id="Vector_00000078732960230927686740000017250427408972488362_" style="fill:url(#Vector_00000079455612223263543690000009931497007524818310_);" d="
			M79.6,0H56.2c-0.9,0-1.7,0.7-1.7,1.7v5.1L57,4.3h18.3C76.3,4.3,77,5,77,5.9v25.8h2.6c0.9,0,1.7-0.7,1.7-1.7V1.7
			C81.2,0.7,80.5,0,79.6,0z"/>
		<path id="Vector_2_00000023967694206102296130000001516513456558859964_" class="st0" d="M54.6,6.7l-4.2,4.2h4.2H57V4.3L54.6,6.7z
			"/>
		<path id="Vector_3_00000111155972361982376320000000749634973744361621_" class="st0" d="M75.3,4.3H57v6.7h-6.7v23.4
			c0,0.9,0.7,1.7,1.7,1.7h23.3c0.9,0,1.7-0.7,1.7-1.7V5.9C77,5,76.2,4.3,75.3,4.3z"/>
	</g>
	
		<linearGradient id="Subtract_00000029042616099313890100000014838880077459040422_" gradientUnits="userSpaceOnUse" x1="55.3514" y1="973.9784" x2="71.3514" y2="973.9784" gradientTransform="matrix(1 0 0 -1 0 996.9784)">
		<stop  offset="0.6214" style="stop-color:#A053CF"/>
		<stop  offset="1" style="stop-color:#EF59A5"/>
	</linearGradient>
	
		<path id="Subtract_00000078755976017009731080000009254150236298005635_" style="fill-rule:evenodd;clip-rule:evenodd;fill:url(#Subtract_00000029042616099313890100000014838880077459040422_);" d="
		M57.3,15c-1.1,0-1.9,0.9-1.9,1.9v12.2c0,1.1,0.9,1.9,1.9,1.9h12.2c1.1,0,1.9-0.9,1.9-1.9V16.9c0-1.1-0.9-1.9-1.9-1.9H57.3z
		 M67.1,20.3c0,1.8-1.5,3.3-3.2,3.3c3,0,5.4,2.5,5.4,5.5H58.4c0-3,2.4-5.5,5.4-5.5c-1.8,0-3.2-1.5-3.2-3.3c0-1.8,1.5-3.3,3.3-3.3
		C65.6,17,67.1,18.5,67.1,20.3z"/>
</g>
<linearGradient id="Vector_00000094597637488101670000000003192311717308177072_" gradientUnits="userSpaceOnUse" x1="101.6092" y1="983.1345" x2="135.7342" y2="974.8844" gradientTransform="matrix(1 0 0 -1 0 996.9784)">
	<stop  offset="0.2938" style="stop-color:#A053CF"/>
	<stop  offset="1" style="stop-color:#EF59A5"/>
</linearGradient>
<path id="Vector_00000125570042215600597630000011583015251616752293_" style="fill:url(#Vector_00000094597637488101670000000003192311717308177072_);" d="
	M133.3,6.8C129.8,2.3,124,0,118.4,0C105-0.1,96.3,15.1,102.9,26.7c2.1,3.8,5.5,6.8,9.6,8.2c2.6,0.7,6.5,2.2,8.6-0.2
	c1.1-1.4,0.6-3.1-0.5-4.4c-1.2-1.8,0.3-4.4,2.6-4.3c1.1,0,2.2,0,3.2,0c2.1,0,4.2-0.5,6-1.8C138.2,20.3,137.4,11.7,133.3,6.8
	L133.3,6.8z M107.2,14.6c-1.3,0-2.3-1-2.3-2.3c0-1.3,1-2.3,2.3-2.3c1.3,0,2.3,1,2.3,2.3C109.6,13.6,108.5,14.6,107.2,14.6z M113.8,9
	c-1.3,0-2.3-1-2.3-2.3s1-2.3,2.3-2.3s2.3,1,2.3,2.3S115.1,9,113.8,9z M121.4,9c-1.3,0-2.3-1-2.3-2.3s1-2.3,2.3-2.3
	c1.3,0,2.3,1,2.3,2.3S122.7,9,121.4,9z M128,14.6c-1.3,0-2.3-1-2.3-2.3c0-1.3,1-2.3,2.3-2.3c1.3,0,2.3,1,2.3,2.3
	C130.3,13.6,129.3,14.6,128,14.6z"/>
<g id="Group_5488_00000128478909378520851140000011323500294823096242_">
	
		<linearGradient id="Vector_00000164507583574915303840000010969719961568239522_" gradientUnits="userSpaceOnUse" x1="10.1945" y1="953.8688" x2="36.4445" y2="924.6188" gradientTransform="matrix(1 0 0 -1 0 996.9784)">
		<stop  offset="0.6214" style="stop-color:#A053CF"/>
		<stop  offset="1" style="stop-color:#EF59A5"/>
	</linearGradient>
	
		<path id="Vector_00000142168731229352440970000003234572388043584947_" style="fill:url(#Vector_00000164507583574915303840000010969719961568239522_);" d="
		M29.7,48H6.4c-0.9,0-1.7,0.7-1.7,1.7v5.1l2.4-2.4h18.3c0.9,0,1.7,0.7,1.7,1.7v25.8h2.6c0.9,0,1.7-0.7,1.7-1.7V49.6
		C31.4,48.7,30.6,48,29.7,48z"/>
	<path id="Vector_2_00000127028089966709654890000004849584729701169033_" class="st0" d="M4.7,54.7l-4.2,4.2h4.2h2.4v-6.7L4.7,54.7
		z"/>
	<path id="Vector_3_00000172402242027554804250000004699053180099956913_" class="st0" d="M25.5,52.3H7.2v6.7H0.5v23.4
		c0,0.9,0.7,1.7,1.7,1.7h23.3c0.9,0,1.7-0.7,1.7-1.7V53.9C27.1,53,26.4,52.3,25.5,52.3z"/>
	<path id="Vector_4_00000005235619970274878730000014775008564024845707_" class="st0" d="M4.7,62H22"/>
	<path id="Vector_5_00000096778191474064837670000014438215679494547362_" class="st0" d="M4.7,65.4H22"/>
	<path id="Vector_6_00000129894312529235968540000002146747543271954575_" class="st0" d="M4.7,68.8H22"/>
</g>
<g id="Group_34565">
	
		<linearGradient id="Vector_00000133514113348950730220000013949236932512335746_" gradientUnits="userSpaceOnUse" x1="65.5055" y1="948.6489" x2="84.6305" y2="920.149" gradientTransform="matrix(1 0 0 -1 0 996.9784)">
		<stop  offset="0.2668" style="stop-color:#A053CF"/>
		<stop  offset="1" style="stop-color:#EF59A5"/>
	</linearGradient>
	
		<path id="Vector_00000073715547954798109820000004474822721173388424_" style="fill:url(#Vector_00000133514113348950730220000013949236932512335746_);" d="
		M79.6,48H56.2c-0.9,0-1.7,0.7-1.7,1.7v5.1l2.4-2.4h18.3c0.9,0,1.7,0.7,1.7,1.7v25.8h2.6c0.9,0,1.7-0.7,1.7-1.7V49.6
		C81.2,48.7,80.5,48,79.6,48z"/>
	<path id="Vector_2_00000141448586326425008610000017384034192380242077_" class="st0" d="M54.6,54.7l-4.2,4.2h4.2H57v-6.7
		L54.6,54.7z"/>
	<path id="Vector_3_00000092427822026633915900000015783559210244333712_" class="st0" d="M75.3,52.3H57v6.7h-6.7v23.4
		c0,0.9,0.7,1.7,1.7,1.7h23.3c0.9,0,1.7-0.7,1.7-1.7V53.9C77,53,76.2,52.3,75.3,52.3z"/>
	<path id="Vector_4_00000106854519149153112310000004979567235443815819_" class="st0" d="M56,72.7h15"/>
	<path id="Vector_5_00000027570022798264910980000007969878385906434996_" class="st0" d="M56,75.7h15"/>
	<g id="ATS">
		<path class="st10" d="M55.2,69.6l2.7-7.3h0.9l2.7,7.3h-0.9L59,64.9c0-0.1-0.1-0.3-0.2-0.5c-0.1-0.2-0.1-0.4-0.2-0.6
			c-0.1-0.2-0.1-0.4-0.2-0.6c-0.1-0.2-0.1-0.3-0.2-0.5h0.2c-0.1,0.2-0.1,0.4-0.2,0.5c-0.1,0.2-0.1,0.4-0.2,0.5
			c-0.1,0.2-0.1,0.3-0.2,0.5c-0.1,0.2-0.1,0.3-0.2,0.5L56,69.6H55.2z M56.4,67.6l0.3-0.8H60l0.3,0.8H56.4z"/>
		<path class="st10" d="M63.6,69.6v-6.5h-2v-0.8h4.9v0.8h-2.1v6.5H63.6z"/>
		<path class="st10" d="M70,69.7c-0.4,0-0.7-0.1-1-0.2c-0.3-0.1-0.6-0.3-0.9-0.5c-0.3-0.2-0.5-0.5-0.7-0.8l0.5-0.6
			c0.3,0.5,0.6,0.8,1,1c0.3,0.2,0.7,0.3,1.1,0.3c0.3,0,0.6-0.1,0.8-0.2s0.4-0.3,0.6-0.4c0.1-0.2,0.2-0.4,0.2-0.6
			c0-0.2,0-0.3-0.1-0.4c0-0.1-0.1-0.2-0.2-0.3c-0.1-0.1-0.2-0.2-0.4-0.3s-0.3-0.1-0.5-0.2c-0.2-0.1-0.4-0.1-0.6-0.2
			c-0.3-0.1-0.7-0.2-0.9-0.3c-0.3-0.1-0.5-0.3-0.7-0.4c-0.2-0.2-0.3-0.4-0.4-0.6c-0.1-0.2-0.1-0.5-0.1-0.8c0-0.3,0.1-0.6,0.2-0.8
			c0.1-0.2,0.3-0.5,0.5-0.6c0.2-0.2,0.5-0.3,0.7-0.4c0.3-0.1,0.6-0.1,0.9-0.1c0.4,0,0.7,0.1,1,0.2c0.3,0.1,0.5,0.2,0.8,0.4
			c0.2,0.2,0.4,0.4,0.6,0.7l-0.6,0.6c-0.1-0.2-0.3-0.4-0.5-0.6c-0.2-0.2-0.4-0.3-0.6-0.4C70.5,63,70.3,63,70,63
			c-0.3,0-0.6,0.1-0.8,0.2c-0.2,0.1-0.4,0.3-0.5,0.4c-0.1,0.2-0.2,0.4-0.2,0.6c0,0.2,0,0.3,0.1,0.5c0.1,0.1,0.2,0.3,0.3,0.4
			c0.1,0.1,0.3,0.2,0.5,0.3c0.2,0.1,0.5,0.1,0.8,0.2c0.4,0.1,0.7,0.2,0.9,0.3c0.3,0.1,0.5,0.3,0.7,0.4c0.2,0.2,0.4,0.3,0.5,0.6
			c0.1,0.2,0.2,0.5,0.2,0.7c0,0.4-0.1,0.8-0.3,1.1c-0.2,0.3-0.5,0.6-0.9,0.8C70.9,69.6,70.5,69.7,70,69.7z"/>
	</g>
</g>
</svg>
