<svg xmlns="http://www.w3.org/2000/svg" xmlns:v="https://svgstorm.com"
viewBox = "0 0 393 303"
width="393"
height="303">
<g fill="None" fill-opacity="0.0" stroke="#000000" stroke-opacity="0.00" stroke-width="0.3"><path d="
M 0.00 303.00 
L 393.00 303.00
L 393.00 0.00
L 0.00 0.00
L 0.00 303.00
M 62.00 163.00 
C 55.67 163.00 49.33 163.00 43.00 163.00
C 41.01 154.90 51.39 158.96 56.00 158.00
C 56.59 147.20 50.34 136.92 53.92 126.92 C 57.50 116.92 56.19 102.69 55.00 92.00
C 66.64 100.32 58.64 112.72 59.00 125.00 C 59.36 137.28 58.54 150.82 62.00 163.00
M 290.00 179.00 
C 289.49 179.37 288.41 179.63 288.00 180.00
C 284.70 186.22 270.94 198.96 272.00 184.00
C 267.27 188.94 258.88 204.51 252.00 197.00
C 248.22 199.73 248.42 204.33 242.97 204.97 C 237.52 205.62 240.26 196.56 239.00 194.00
C 235.73 199.86 232.21 212.86 224.00 211.00
C 226.32 204.11 227.24 192.91 234.00 190.00
C 233.52 195.80 228.63 200.18 228.00 206.00
C 234.43 200.38 236.40 191.43 242.00 185.00
C 246.99 189.25 240.44 196.27 242.00 202.00
C 253.91 197.92 256.99 184.26 261.00 174.00
C 267.32 178.39 254.70 188.37 256.00 196.00
C 263.24 193.63 266.21 184.85 273.00 182.00
C 274.96 170.88 278.47 158.17 282.98 147.98 C 287.49 137.78 290.94 125.03 299.00 119.00
C 289.56 141.17 277.53 163.68 275.00 188.00
C 280.99 186.40 284.84 179.99 289.00 176.00
C 290.07 174.88 292.30 173.77 293.00 173.00
C 292.88 168.46 302.30 157.62 306.00 163.00
C 313.98 152.95 315.16 139.19 319.93 127.93 C 324.69 116.66 326.49 101.18 337.00 95.00
C 337.80 122.89 309.41 144.44 316.00 172.00
C 328.80 166.39 326.61 143.71 344.00 142.00
C 345.04 153.86 326.70 154.87 328.00 166.00
C 339.58 160.47 351.57 148.94 354.00 136.00
C 357.54 137.36 355.50 141.48 355.00 144.00
C 359.03 141.44 362.55 134.49 368.00 138.00
C 357.79 142.14 352.63 154.02 348.00 163.00
C 342.97 160.79 350.10 154.78 347.00 152.00
C 342.24 158.82 335.02 171.50 325.00 168.00
C 318.11 181.32 307.41 170.11 311.00 160.00
C 307.55 165.52 302.04 171.27 299.25 177.25 C 296.45 183.22 285.54 189.80 290.00 179.00
M 39.00 98.00 
C 39.00 106.33 39.00 114.67 39.00 123.00
C 33.00 124.20 34.81 115.11 35.00 111.00 C 35.19 106.89 32.53 96.84 39.00 98.00
M 234.00 163.00 
C 227.97 161.56 216.39 166.92 216.00 158.00
C 231.90 163.00 229.40 147.70 229.00 137.00 C 228.60 126.30 230.23 115.00 227.00 105.00
C 235.49 110.24 231.80 122.20 232.00 132.00 C 232.20 141.80 233.57 153.08 234.00 163.00
M 154.00 106.00 
C 153.32 112.71 154.90 121.49 154.00 128.00 C 153.10 134.51 157.38 145.42 150.00 147.00
C 150.72 140.29 149.04 131.50 150.00 125.00 C 150.96 118.50 146.50 106.79 154.00 106.00
M 173.00 106.00 
C 171.50 121.07 175.00 141.47 173.00 156.00 C 171.00 170.53 142.85 166.61 140.00 156.00
C 145.41 159.61 152.00 159.14 158.02 158.02 C 164.05 156.91 168.78 153.63 169.00 147.00 C 169.21 140.36 168.30 131.47 169.00 125.00 C 169.70 118.53 165.69 106.76 173.00 106.00
M 95.00 107.00 
C 101.10 116.05 101.42 128.25 100.00 139.00
C 93.19 138.08 86.82 136.01 79.00 137.00
C 79.52 139.32 79.66 153.42 75.77 150.21 C 71.88 147.01 77.09 137.12 75.00 133.00
C 81.67 133.00 88.33 133.00 95.00 133.00
C 95.62 124.43 94.10 114.40 95.00 107.00
M 134.00 110.00 
C 135.55 114.46 132.84 120.40 134.00 125.00
C 129.39 125.72 125.49 123.84 121.00 124.00
C 119.42 123.81 120.06 123.73 119.00 123.00
C 116.09 121.00 115.01 119.20 114.00 116.00
C 113.49 114.39 111.13 109.00 115.00 109.00
C 116.58 110.67 115.97 113.81 117.00 116.00
C 117.56 117.79 118.39 119.21 119.00 121.00
C 119.12 120.56 120.43 119.24 121.00 119.00
C 123.54 117.92 127.35 119.81 130.00 119.00
C 130.00 116.00 130.00 113.00 130.00 110.00
C 130.24 109.06 129.81 107.95 130.00 107.00
C 131.77 106.79 133.37 108.54 134.00 110.00
M 273.00 139.00 
C 266.19 138.08 259.82 136.01 252.00 137.00
C 252.52 139.32 252.66 153.42 248.77 150.21 C 244.88 147.01 250.09 137.12 248.00 133.00
C 254.67 133.00 261.33 133.00 268.00 133.00
C 267.27 124.35 269.80 114.84 266.00 107.00
C 278.54 112.45 271.64 128.22 273.00 139.00
M 79.00 127.00 
C 74.04 128.17 72.36 112.23 75.78 109.78 C 79.20 107.32 79.90 123.76 79.00 127.00
M 252.00 127.00 
C 246.96 129.02 245.42 112.23 248.78 109.78 C 252.14 107.32 252.95 123.76 252.00 127.00
M 193.00 142.00 
C 193.47 141.88 194.50 141.99 195.00 142.00
C 196.00 142.01 197.00 141.99 198.00 142.00
C 197.88 149.53 191.71 155.33 194.00 163.00
C 187.13 166.83 187.38 179.44 184.00 187.00
C 188.97 178.08 197.30 168.98 197.00 158.00
C 203.63 158.54 204.99 149.55 209.00 146.00
C 211.65 135.32 207.02 122.84 209.00 112.00
C 217.60 115.38 210.86 130.80 213.00 139.00
C 214.25 138.70 214.71 137.17 216.00 137.00
C 221.92 128.01 222.80 139.17 219.69 144.69 C 216.59 150.22 213.75 156.43 214.00 163.00
C 206.65 164.77 205.50 175.11 200.00 180.00
C 207.09 179.58 213.75 178.15 219.00 173.00
C 222.28 170.88 225.36 168.16 229.00 167.00
C 225.70 171.00 221.01 173.74 217.00 177.00
C 216.04 178.38 215.00 178.84 214.00 180.00
C 224.52 186.79 219.54 202.37 215.08 212.08 C 210.61 221.78 205.34 229.80 198.70 238.70 C 192.06 247.59 183.92 251.23 175.92 258.92 C 167.92 266.61 150.75 264.11 151.00 251.00 C 151.26 237.88 156.33 230.52 164.25 221.25 C 172.17 211.97 173.36 203.75 178.00 193.00
C 175.50 192.02 174.55 189.54 175.00 187.00
C 180.29 193.56 181.60 183.90 182.93 178.93 C 184.26 173.95 187.65 167.44 187.00 163.00
C 184.11 164.13 180.00 162.15 177.00 163.00
C 174.93 155.23 184.56 158.76 189.00 158.00
C 189.00 142.67 189.00 127.33 189.00 112.00
C 197.74 116.31 190.76 132.85 193.00 142.00
M 132.00 134.00 
C 135.24 139.18 134.91 148.38 136.60 154.74 C 138.28 161.11 126.04 165.57 120.99 164.99 C 115.94 164.41 104.58 164.22 103.00 157.00
C 119.78 165.45 139.26 151.51 129.00 133.00
C 128.89 132.01 127.47 131.22 128.00 130.00
C 129.61 130.99 132.40 131.42 132.00 134.00
M 115.00 140.00 
C 111.70 137.63 106.94 135.27 106.00 131.00
C 109.57 133.25 114.57 135.26 115.00 140.00
M 41.00 163.00 
C 34.67 163.00 28.33 163.00 22.00 163.00
C 20.01 154.90 30.39 158.96 35.00 158.00
C 36.25 149.64 32.45 138.77 37.00 132.00
C 40.59 141.40 37.65 153.39 41.00 163.00
M 98.00 141.00 
C 100.33 149.60 100.11 161.64 89.92 163.92 C 79.74 166.21 69.90 165.13 65.00 156.00
C 72.71 159.78 78.75 159.29 87.07 157.07 C 95.40 154.85 91.38 142.51 98.00 141.00
M 238.00 156.00 
C 249.22 162.98 270.71 157.70 267.00 141.00
C 278.83 141.31 272.90 161.03 263.97 162.97 C 255.04 164.92 241.65 166.79 238.00 156.00
M 113.00 150.00 
C 110.37 138.43 122.80 149.14 113.00 150.00
M 270.00 162.00 
C 271.21 163.21 268.94 166.27 267.32 164.66 C 265.70 163.05 268.88 160.88 270.00 162.00 Z"/>
</g>
<g fill="None" fill-opacity="0.0" stroke="#A487EB" stroke-opacity="0.81" stroke-width="0.3"><path d="
M 62.00 163.00 
C 58.54 150.82 59.36 137.28 59.00 125.00 C 58.64 112.72 66.64 100.32 55.00 92.00
C 56.19 102.69 57.50 116.92 53.92 126.92 C 50.34 136.92 56.59 147.20 56.00 158.00
C 51.39 158.96 41.01 154.90 43.00 163.00
C 49.33 163.00 55.67 163.00 62.00 163.00 Z"/>
</g>
<g fill="None" fill-opacity="0.0" stroke="#775AD5" stroke-opacity="0.61" stroke-width="0.3"><path d="
M 293.00 173.00 
C 293.03 174.25 293.87 174.34 294.00 175.00
C 295.79 171.50 299.50 167.96 302.00 165.00
C 299.85 170.80 297.95 177.58 292.00 181.00
C 291.47 179.72 292.97 179.14 293.00 178.00
C 293.33 177.67 290.66 178.52 290.00 179.00
C 285.54 189.80 296.45 183.22 299.25 177.25 C 302.04 171.27 307.55 165.52 311.00 160.00
C 307.41 170.11 318.11 181.32 325.00 168.00
C 335.02 171.50 342.24 158.82 347.00 152.00
C 350.10 154.78 342.97 160.79 348.00 163.00
C 352.63 154.02 357.79 142.14 368.00 138.00
C 362.55 134.49 359.03 141.44 355.00 144.00
C 355.50 141.48 357.54 137.36 354.00 136.00
C 351.57 148.94 339.58 160.47 328.00 166.00
C 326.70 154.87 345.04 153.86 344.00 142.00
C 326.61 143.71 328.80 166.39 316.00 172.00
C 309.41 144.44 337.80 122.89 337.00 95.00
C 326.49 101.18 324.69 116.66 319.93 127.93 C 315.16 139.19 313.98 152.95 306.00 163.00
C 302.30 157.62 292.88 168.46 293.00 173.00
M 321.00 137.00 
C 321.34 126.43 328.57 114.82 332.00 104.00
C 332.20 114.70 324.69 126.26 321.00 137.00
M 333.00 154.00 
C 332.11 154.79 331.78 156.62 330.00 156.00
C 330.97 154.15 331.79 151.76 334.00 151.00
C 335.70 149.18 337.13 145.97 340.00 146.00
C 338.27 149.11 334.67 150.92 333.00 154.00 Z"/>
</g>
<g fill="None" fill-opacity="0.0" stroke="#A389E1" stroke-opacity="0.69" stroke-width="0.3"><path d="
M 39.00 98.00 
C 32.53 96.84 35.19 106.89 35.00 111.00 C 34.81 115.11 33.00 124.20 39.00 123.00
C 39.00 114.67 39.00 106.33 39.00 98.00 Z"/>
</g>
<g fill="None" fill-opacity="0.0" stroke="#000000" stroke-opacity="0.00" stroke-width="0.3"><path d="
M 321.00 137.00 
C 324.69 126.26 332.20 114.70 332.00 104.00
C 328.57 114.82 321.34 126.43 321.00 137.00 Z"/>
</g>
<g fill="None" fill-opacity="0.0" stroke="#A284E7" stroke-opacity="0.82" stroke-width="0.3"><path d="
M 234.00 163.00 
C 233.57 153.08 232.20 141.80 232.00 132.00 C 231.80 122.20 235.49 110.24 227.00 105.00
C 230.23 115.00 228.60 126.30 229.00 137.00 C 229.40 147.70 231.90 163.00 216.00 158.00
C 216.39 166.92 227.97 161.56 234.00 163.00 Z"/>
</g>
<g fill="None" fill-opacity="0.0" stroke="#A488ED" stroke-opacity="0.74" stroke-width="0.3"><path d="
M 154.00 106.00 
C 146.50 106.79 150.96 118.50 150.00 125.00 C 149.04 131.50 150.72 140.29 150.00 147.00
C 157.38 145.42 153.10 134.51 154.00 128.00 C 154.90 121.49 153.32 112.71 154.00 106.00 Z"/>
</g>
<g fill="None" fill-opacity="0.0" stroke="#A487E8" stroke-opacity="0.74" stroke-width="0.3"><path d="
M 173.00 106.00 
C 165.69 106.76 169.70 118.53 169.00 125.00 C 168.30 131.47 169.21 140.36 169.00 147.00 C 168.78 153.63 164.05 156.91 158.02 158.02 C 152.00 159.14 145.41 159.61 140.00 156.00
C 142.85 166.61 171.00 170.53 173.00 156.00 C 175.00 141.47 171.50 121.07 173.00 106.00 Z"/>
</g>
<g fill="None" fill-opacity="0.0" stroke="#A488E7" stroke-opacity="0.73" stroke-width="0.3"><path d="
M 95.00 107.00 
C 94.10 114.40 95.62 124.43 95.00 133.00
C 88.33 133.00 81.67 133.00 75.00 133.00
C 77.09 137.12 71.88 147.01 75.77 150.21 C 79.66 153.42 79.52 139.32 79.00 137.00
C 86.82 136.01 93.19 138.08 100.00 139.00
C 101.42 128.25 101.10 116.05 95.00 107.00 Z"/>
</g>
<g fill="None" fill-opacity="0.0" stroke="#A293D4" stroke-opacity="0.44" stroke-width="0.3"><path d="
M 130.00 110.00 
C 130.56 109.21 133.49 109.32 134.00 110.00
C 133.37 108.54 131.77 106.79 130.00 107.00
C 129.81 107.95 130.24 109.06 130.00 110.00 Z"/>
</g>
<g fill="None" fill-opacity="0.0" stroke="#A386EB" stroke-opacity="0.77" stroke-width="0.3"><path d="
M 273.00 139.00 
C 271.64 128.22 278.54 112.45 266.00 107.00
C 269.80 114.84 267.27 124.35 268.00 133.00
C 261.33 133.00 254.67 133.00 248.00 133.00
C 250.09 137.12 244.88 147.01 248.77 150.21 C 252.66 153.42 252.52 139.32 252.00 137.00
C 259.82 136.01 266.19 138.08 273.00 139.00 Z"/>
</g>
<g fill="None" fill-opacity="0.0" stroke="#A48DE1" stroke-opacity="0.67" stroke-width="0.3"><path d="
M 79.00 127.00 
C 79.90 123.76 79.20 107.32 75.78 109.78 C 72.36 112.23 74.04 128.17 79.00 127.00 Z"/>
</g>
<g fill="None" fill-opacity="0.0" stroke="#A28FE1" stroke-opacity="0.71" stroke-width="0.3"><path d="
M 114.00 116.00 
C 114.89 117.38 116.38 118.19 117.00 116.00
C 115.97 113.81 116.58 110.67 115.00 109.00
C 111.13 109.00 113.49 114.39 114.00 116.00 Z"/>
</g>
<g fill="None" fill-opacity="0.0" stroke="#A184ED" stroke-opacity="0.78" stroke-width="0.3"><path d="
M 130.00 110.00 
C 130.00 113.00 130.00 116.00 130.00 119.00
C 127.35 119.81 123.54 117.92 121.00 119.00
C 120.41 119.82 121.78 123.46 121.00 124.00
C 125.49 123.84 129.39 125.72 134.00 125.00
C 132.84 120.40 135.55 114.46 134.00 110.00
C 133.49 109.32 130.56 109.21 130.00 110.00 Z"/>
</g>
<g fill="None" fill-opacity="0.0" stroke="#9D86E8" stroke-opacity="0.64" stroke-width="0.3"><path d="
M 252.00 127.00 
C 252.95 123.76 252.14 107.32 248.78 109.78 C 245.42 112.23 246.96 129.02 252.00 127.00 Z"/>
</g>
<g fill="None" fill-opacity="0.0" stroke="#9E82E6" stroke-opacity="0.77" stroke-width="0.3"><path d="
M 187.00 163.00 
C 188.47 159.23 191.76 155.56 193.00 151.00
C 192.92 149.56 187.83 143.34 193.00 142.00
C 190.76 132.85 197.74 116.31 189.00 112.00
C 189.00 127.33 189.00 142.67 189.00 158.00
C 184.56 158.76 174.93 155.23 177.00 163.00
C 180.00 162.15 184.11 164.13 187.00 163.00 Z"/>
</g>
<g fill="None" fill-opacity="0.0" stroke="#9D7FE3" stroke-opacity="0.68" stroke-width="0.3"><path d="
M 209.00 146.00 
C 211.28 143.08 213.88 140.22 216.00 137.00
C 214.71 137.17 214.25 138.70 213.00 139.00
C 210.86 130.80 217.60 115.38 209.00 112.00
C 207.02 122.84 211.65 135.32 209.00 146.00 Z"/>
</g>
<g fill="None" fill-opacity="0.0" stroke="#A391DB" stroke-opacity="0.46" stroke-width="0.3"><path d="
M 119.00 123.00 
C 119.52 123.87 119.02 121.05 119.00 121.00
C 118.39 119.21 117.56 117.79 117.00 116.00
C 116.38 118.19 114.89 117.38 114.00 116.00
C 115.01 119.20 116.09 121.00 119.00 123.00 Z"/>
</g>
<g fill="None" fill-opacity="0.0" stroke="#9E84DF" stroke-opacity="0.09" stroke-width="0.3"><path d="
M 119.00 121.00 
C 119.02 121.05 119.52 123.87 119.00 123.00
C 120.06 123.73 119.42 123.81 121.00 124.00
C 121.78 123.46 120.41 119.82 121.00 119.00
C 120.43 119.24 119.12 120.56 119.00 121.00 Z"/>
</g>
<g fill="None" fill-opacity="0.0" stroke="#785DD3" stroke-opacity="0.60" stroke-width="0.3"><path d="
M 288.00 180.00 
C 288.56 178.95 289.09 175.83 289.00 176.00
C 284.84 179.99 280.99 186.40 275.00 188.00
C 277.53 163.68 289.56 141.17 299.00 119.00
C 290.94 125.03 287.49 137.78 282.98 147.98 C 278.47 158.17 274.96 170.88 273.00 182.00
C 266.21 184.85 263.24 193.63 256.00 196.00
C 254.70 188.37 267.32 178.39 261.00 174.00
C 256.99 184.26 253.91 197.92 242.00 202.00
C 240.44 196.27 246.99 189.25 242.00 185.00
C 236.40 191.43 234.43 200.38 228.00 206.00
C 228.63 200.18 233.52 195.80 234.00 190.00
C 227.24 192.91 226.32 204.11 224.00 211.00
C 232.21 212.86 235.73 199.86 239.00 194.00
C 240.26 196.56 237.52 205.62 242.97 204.97 C 248.42 204.33 248.22 199.73 252.00 197.00
C 258.88 204.51 267.27 188.94 272.00 184.00
C 270.94 198.96 284.70 186.22 288.00 180.00 Z"/>
</g>
<g fill="None" fill-opacity="0.0" stroke="#A797DE" stroke-opacity="0.38" stroke-width="0.3"><path d="
M 129.00 133.00 
C 129.49 133.38 131.29 133.53 132.00 134.00
C 132.40 131.42 129.61 130.99 128.00 130.00
C 127.47 131.22 128.89 132.01 129.00 133.00 Z"/>
</g>
<g fill="None" fill-opacity="0.0" stroke="#9E93CF" stroke-opacity="0.38" stroke-width="0.3"><path d="
M 115.00 140.00 
C 114.57 135.26 109.57 133.25 106.00 131.00
C 106.94 135.27 111.70 137.63 115.00 140.00 Z"/>
</g>
<g fill="None" fill-opacity="0.0" stroke="#A085E6" stroke-opacity="0.74" stroke-width="0.3"><path d="
M 41.00 163.00 
C 37.65 153.39 40.59 141.40 37.00 132.00
C 32.45 138.77 36.25 149.64 35.00 158.00
C 30.39 158.96 20.01 154.90 22.00 163.00
C 28.33 163.00 34.67 163.00 41.00 163.00 Z"/>
</g>
<g fill="None" fill-opacity="0.0" stroke="#A587EE" stroke-opacity="0.79" stroke-width="0.3"><path d="
M 132.00 134.00 
C 131.29 133.53 129.49 133.38 129.00 133.00
C 139.26 151.51 119.78 165.45 103.00 157.00
C 104.58 164.22 115.94 164.41 120.99 164.99 C 126.04 165.57 138.28 161.11 136.60 154.74 C 134.91 148.38 135.24 139.18 132.00 134.00 Z"/>
</g>
<g fill="None" fill-opacity="0.0" stroke="#805BE1" stroke-opacity="0.71" stroke-width="0.3"><path d="
M 216.00 137.00 
C 213.88 140.22 211.28 143.08 209.00 146.00
C 204.99 149.55 203.63 158.54 197.00 158.00
C 197.30 168.98 188.97 178.08 184.00 187.00
C 187.38 179.44 187.13 166.83 194.00 163.00
C 191.71 155.33 197.88 149.53 198.00 142.00
C 197.00 141.99 196.00 142.01 195.00 142.00
C 195.25 144.12 193.61 148.76 193.00 151.00
C 191.76 155.56 188.47 159.23 187.00 163.00
C 187.65 167.44 184.26 173.95 182.93 178.93 C 181.60 183.90 180.29 193.56 175.00 187.00
C 174.55 189.54 175.50 192.02 178.00 193.00
C 173.36 203.75 172.17 211.97 164.25 221.25 C 156.33 230.52 151.26 237.88 151.00 251.00 C 150.75 264.11 167.92 266.61 175.92 258.92 C 183.92 251.23 192.06 247.59 198.70 238.70 C 205.34 229.80 210.61 221.78 215.08 212.08 C 219.54 202.37 224.52 186.79 214.00 180.00
C 215.00 178.84 216.04 178.38 217.00 177.00
C 217.77 175.89 218.34 173.81 219.00 173.00
C 213.75 178.15 207.09 179.58 200.00 180.00
C 205.50 175.11 206.65 164.77 214.00 163.00
C 213.75 156.43 216.59 150.22 219.69 144.69 C 222.80 139.17 221.92 128.01 216.00 137.00
M 214.00 151.00 
C 213.70 151.73 213.30 152.27 213.00 153.00
C 211.36 156.98 209.30 160.51 207.00 164.00
C 202.28 171.17 197.68 180.62 190.00 185.00
C 192.90 177.47 198.00 170.57 201.00 163.00
C 202.31 160.54 204.52 159.03 206.00 157.00
C 207.16 155.41 207.30 153.02 209.00 152.00
C 209.00 154.00 209.00 156.00 209.00 158.00
C 211.33 157.05 209.45 149.26 212.00 147.00
C 212.26 146.77 212.77 146.26 213.00 146.00
C 214.97 143.78 215.40 140.48 218.00 139.00
C 218.14 143.44 214.82 146.83 214.00 151.00
M 204.00 184.00 
C 196.97 188.45 190.77 194.16 184.00 199.00
C 187.17 191.38 196.25 185.08 204.00 182.00
C 204.87 181.79 206.48 180.18 208.00 181.00
C 207.40 182.82 205.44 183.15 204.00 184.00
M 157.00 239.00 
C 156.79 250.66 164.30 246.60 165.98 238.98 C 167.65 231.35 172.54 226.87 173.77 219.77 C 175.00 212.67 180.00 208.44 184.75 203.75 C 189.51 199.07 194.95 194.24 199.70 190.70 C 204.45 187.15 209.96 179.02 214.75 185.25 C 219.54 191.47 216.34 200.75 214.07 207.07 C 211.81 213.40 208.33 219.16 204.75 224.75 C 201.16 230.33 197.21 235.77 192.75 240.75 C 188.29 245.72 183.90 249.55 178.75 253.75 C 173.61 257.95 167.50 262.57 160.78 259.22 C 154.05 255.88 153.28 245.34 157.00 239.00
M 186.00 187.00 
C 185.97 189.48 184.31 191.28 182.00 192.00
C 182.44 190.06 184.24 188.28 186.00 187.00
M 162.00 232.00 
C 161.33 234.16 159.94 236.87 158.00 238.00
C 158.40 235.89 159.38 233.34 161.00 232.00
C 162.52 229.50 163.18 225.69 166.00 225.00
C 164.51 227.21 164.93 230.88 162.00 232.00 Z"/>
</g>
<g fill="None" fill-opacity="0.0" stroke="#000000" stroke-opacity="0.00" stroke-width="0.3"><path d="
M 213.00 146.00 
C 213.03 146.06 213.97 151.41 214.00 151.00
C 214.82 146.83 218.14 143.44 218.00 139.00
C 215.40 140.48 214.97 143.78 213.00 146.00 Z"/>
</g>
<g fill="None" fill-opacity="0.0" stroke="#A687EE" stroke-opacity="0.79" stroke-width="0.3"><path d="
M 98.00 141.00 
C 91.38 142.51 95.40 154.85 87.07 157.07 C 78.75 159.29 72.71 159.78 65.00 156.00
C 69.90 165.13 79.74 166.21 89.92 163.92 C 100.11 161.64 100.33 149.60 98.00 141.00 Z"/>
</g>
<g fill="None" fill-opacity="0.0" stroke="#A486EC" stroke-opacity="0.78" stroke-width="0.3"><path d="
M 238.00 156.00 
C 241.65 166.79 255.04 164.92 263.97 162.97 C 272.90 161.03 278.83 141.31 267.00 141.00
C 270.71 157.70 249.22 162.98 238.00 156.00 Z"/>
</g>
<g fill="None" fill-opacity="0.0" stroke="#9A70F8" stroke-opacity="0.44" stroke-width="0.3"><path d="
M 193.00 151.00 
C 193.61 148.76 195.25 144.12 195.00 142.00
C 194.50 141.99 193.47 141.88 193.00 142.00
C 187.83 143.34 192.92 149.56 193.00 151.00 Z"/>
</g>
<g fill="None" fill-opacity="0.0" stroke="#A490DE" stroke-opacity="0.69" stroke-width="0.3"><path d="
M 113.00 150.00 
C 122.80 149.14 110.37 138.43 113.00 150.00 Z"/>
</g>
<g fill="None" fill-opacity="0.0" stroke="#9170E1" stroke-opacity="0.13" stroke-width="0.3"><path d="
M 212.00 147.00 
C 211.48 149.13 213.04 151.79 213.00 153.00
C 213.30 152.27 213.70 151.73 214.00 151.00
C 213.97 151.41 213.03 146.06 213.00 146.00
C 212.77 146.26 212.26 146.77 212.00 147.00 Z"/>
</g>
<g fill="None" fill-opacity="0.0" stroke="#1D1439" stroke-opacity="0.06" stroke-width="0.3"><path d="
M 334.00 151.00 
C 333.42 151.84 332.74 154.40 333.00 154.00
C 334.67 150.92 338.27 149.11 340.00 146.00
C 337.13 145.97 335.70 149.18 334.00 151.00 Z"/>
</g>
<g fill="None" fill-opacity="0.0" stroke="#9B71F5" stroke-opacity="0.84" stroke-width="0.3"><path d="
M 209.00 158.00 
C 207.54 158.59 206.56 156.99 206.00 157.00
C 204.52 159.03 202.31 160.54 201.00 163.00
C 202.88 163.47 205.93 161.94 207.00 164.00
C 209.30 160.51 211.36 156.98 213.00 153.00
C 213.04 151.79 211.48 149.13 212.00 147.00
C 209.45 149.26 211.33 157.05 209.00 158.00 Z"/>
</g>
<g fill="None" fill-opacity="0.0" stroke="#8560EE" stroke-opacity="0.36" stroke-width="0.3"><path d="
M 333.00 154.00 
C 332.74 154.40 333.42 151.84 334.00 151.00
C 331.79 151.76 330.97 154.15 330.00 156.00
C 331.78 156.62 332.11 154.79 333.00 154.00 Z"/>
</g>
<g fill="None" fill-opacity="0.0" stroke="#000000" stroke-opacity="0.00" stroke-width="0.3"><path d="
M 206.00 157.00 
C 206.56 156.99 207.54 158.59 209.00 158.00
C 209.00 156.00 209.00 154.00 209.00 152.00
C 207.30 153.02 207.16 155.41 206.00 157.00 Z"/>
</g>
<g fill="None" fill-opacity="0.0" stroke="#7E6EC6" stroke-opacity="0.47" stroke-width="0.3"><path d="
M 270.00 162.00 
C 268.88 160.88 265.70 163.05 267.32 164.66 C 268.94 166.27 271.21 163.21 270.00 162.00 Z"/>
</g>
<g fill="None" fill-opacity="0.0" stroke="#000000" stroke-opacity="0.00" stroke-width="0.3"><path d="
M 207.00 164.00 
C 205.93 161.94 202.88 163.47 201.00 163.00
C 198.00 170.57 192.90 177.47 190.00 185.00
C 197.68 180.62 202.28 171.17 207.00 164.00 Z"/>
</g>
<g fill="None" fill-opacity="0.0" stroke="#000000" stroke-opacity="0.00" stroke-width="0.3"><path d="
M 294.00 175.00 
C 294.23 176.19 293.36 176.97 293.00 178.00
C 292.97 179.14 291.47 179.72 292.00 181.00
C 297.95 177.58 299.85 170.80 302.00 165.00
C 299.50 167.96 295.79 171.50 294.00 175.00 Z"/>
</g>
<g fill="None" fill-opacity="0.0" stroke="#9189C0" stroke-opacity="0.42" stroke-width="0.3"><path d="
M 219.00 173.00 
C 218.34 173.81 217.77 175.89 217.00 177.00
C 221.01 173.74 225.70 171.00 229.00 167.00
C 225.36 168.16 222.28 170.88 219.00 173.00 Z"/>
</g>
<g fill="None" fill-opacity="0.0" stroke="#8266DC" stroke-opacity="0.37" stroke-width="0.3"><path d="
M 289.00 176.00 
C 289.09 175.83 288.56 178.95 288.00 180.00
C 288.41 179.63 289.49 179.37 290.00 179.00
C 290.66 178.52 293.33 177.67 293.00 178.00
C 293.36 176.97 294.23 176.19 294.00 175.00
C 293.87 174.34 293.03 174.25 293.00 173.00
C 292.30 173.77 290.07 174.88 289.00 176.00 Z"/>
</g>
<g fill="None" fill-opacity="0.0" stroke="#9268EF" stroke-opacity="0.36" stroke-width="0.3"><path d="
M 204.00 182.00 
C 204.43 181.41 204.34 183.58 204.00 184.00
C 205.44 183.15 207.40 182.82 208.00 181.00
C 206.48 180.18 204.87 181.79 204.00 182.00 Z"/>
</g>
<g fill="None" fill-opacity="0.0" stroke="#000000" stroke-opacity="0.00" stroke-width="0.3"><path d="
M 204.00 184.00 
C 204.34 183.58 204.43 181.41 204.00 182.00
C 196.25 185.08 187.17 191.38 184.00 199.00
C 190.77 194.16 196.97 188.45 204.00 184.00 Z"/>
</g>
<g fill="None" fill-opacity="0.0" stroke="#000000" stroke-opacity="0.00" stroke-width="0.3"><path d="
M 157.00 239.00 
C 153.28 245.34 154.05 255.88 160.78 259.22 C 167.50 262.57 173.61 257.95 178.75 253.75 C 183.90 249.55 188.29 245.72 192.75 240.75 C 197.21 235.77 201.16 230.33 204.75 224.75 C 208.33 219.16 211.81 213.40 214.07 207.07 C 216.34 200.75 219.54 191.47 214.75 185.25 C 209.96 179.02 204.45 187.15 199.70 190.70 C 194.95 194.24 189.51 199.07 184.75 203.75 C 180.00 208.44 175.00 212.67 173.77 219.77 C 172.54 226.87 167.65 231.35 165.98 238.98 C 164.30 246.60 156.79 250.66 157.00 239.00 Z"/>
</g>
<g fill="None" fill-opacity="0.0" stroke="#8058F8" stroke-opacity="0.49" stroke-width="0.3"><path d="
M 186.00 187.00 
C 184.24 188.28 182.44 190.06 182.00 192.00
C 184.31 191.28 185.97 189.48 186.00 187.00 Z"/>
</g>
<g fill="None" fill-opacity="0.0" stroke="#7B4FDC" stroke-opacity="0.34" stroke-width="0.3"><path d="
M 161.00 232.00 
C 161.28 231.75 162.00 232.00 162.00 232.00
C 164.93 230.88 164.51 227.21 166.00 225.00
C 163.18 225.69 162.52 229.50 161.00 232.00 Z"/>
</g>
<g fill="None" fill-opacity="0.0" stroke="#1A0C2F" stroke-opacity="0.05" stroke-width="0.3"><path d="
M 162.00 232.00 
C 162.00 232.00 161.28 231.75 161.00 232.00
C 159.38 233.34 158.40 235.89 158.00 238.00
C 159.94 236.87 161.33 234.16 162.00 232.00 Z"/>
</g>
<g fill="#000000" fill-opacity="0.00" stroke="None">
<path d="
M 0.00 303.00 
L 393.00 303.00
L 393.00 0.00
L 0.00 0.00
L 0.00 303.00
M 62.00 163.00 
C 55.67 163.00 49.33 163.00 43.00 163.00
C 41.01 154.90 51.39 158.96 56.00 158.00
C 56.59 147.20 50.34 136.92 53.92 126.92 C 57.50 116.92 56.19 102.69 55.00 92.00
C 66.64 100.32 58.64 112.72 59.00 125.00 C 59.36 137.28 58.54 150.82 62.00 163.00
M 290.00 179.00 
C 289.49 179.37 288.41 179.63 288.00 180.00
C 284.70 186.22 270.94 198.96 272.00 184.00
C 267.27 188.94 258.88 204.51 252.00 197.00
C 248.22 199.73 248.42 204.33 242.97 204.97 C 237.52 205.62 240.26 196.56 239.00 194.00
C 235.73 199.86 232.21 212.86 224.00 211.00
C 226.32 204.11 227.24 192.91 234.00 190.00
C 233.52 195.80 228.63 200.18 228.00 206.00
C 234.43 200.38 236.40 191.43 242.00 185.00
C 246.99 189.25 240.44 196.27 242.00 202.00
C 253.91 197.92 256.99 184.26 261.00 174.00
C 267.32 178.39 254.70 188.37 256.00 196.00
C 263.24 193.63 266.21 184.85 273.00 182.00
C 274.96 170.88 278.47 158.17 282.98 147.98 C 287.49 137.78 290.94 125.03 299.00 119.00
C 289.56 141.17 277.53 163.68 275.00 188.00
C 280.99 186.40 284.84 179.99 289.00 176.00
C 290.07 174.88 292.30 173.77 293.00 173.00
C 292.88 168.46 302.30 157.62 306.00 163.00
C 313.98 152.95 315.16 139.19 319.93 127.93 C 324.69 116.66 326.49 101.18 337.00 95.00
C 337.80 122.89 309.41 144.44 316.00 172.00
C 328.80 166.39 326.61 143.71 344.00 142.00
C 345.04 153.86 326.70 154.87 328.00 166.00
C 339.58 160.47 351.57 148.94 354.00 136.00
C 357.54 137.36 355.50 141.48 355.00 144.00
C 359.03 141.44 362.55 134.49 368.00 138.00
C 357.79 142.14 352.63 154.02 348.00 163.00
C 342.97 160.79 350.10 154.78 347.00 152.00
C 342.24 158.82 335.02 171.50 325.00 168.00
C 318.11 181.32 307.41 170.11 311.00 160.00
C 307.55 165.52 302.04 171.27 299.25 177.25 C 296.45 183.22 285.54 189.80 290.00 179.00
M 39.00 98.00 
C 39.00 106.33 39.00 114.67 39.00 123.00
C 33.00 124.20 34.81 115.11 35.00 111.00 C 35.19 106.89 32.53 96.84 39.00 98.00
M 234.00 163.00 
C 227.97 161.56 216.39 166.92 216.00 158.00
C 231.90 163.00 229.40 147.70 229.00 137.00 C 228.60 126.30 230.23 115.00 227.00 105.00
C 235.49 110.24 231.80 122.20 232.00 132.00 C 232.20 141.80 233.57 153.08 234.00 163.00
M 154.00 106.00 
C 153.32 112.71 154.90 121.49 154.00 128.00 C 153.10 134.51 157.38 145.42 150.00 147.00
C 150.72 140.29 149.04 131.50 150.00 125.00 C 150.96 118.50 146.50 106.79 154.00 106.00
M 173.00 106.00 
C 171.50 121.07 175.00 141.47 173.00 156.00 C 171.00 170.53 142.85 166.61 140.00 156.00
C 145.41 159.61 152.00 159.14 158.02 158.02 C 164.05 156.91 168.78 153.63 169.00 147.00 C 169.21 140.36 168.30 131.47 169.00 125.00 C 169.70 118.53 165.69 106.76 173.00 106.00
M 95.00 107.00 
C 101.10 116.05 101.42 128.25 100.00 139.00
C 93.19 138.08 86.82 136.01 79.00 137.00
C 79.52 139.32 79.66 153.42 75.77 150.21 C 71.88 147.01 77.09 137.12 75.00 133.00
C 81.67 133.00 88.33 133.00 95.00 133.00
C 95.62 124.43 94.10 114.40 95.00 107.00
M 134.00 110.00 
C 135.55 114.46 132.84 120.40 134.00 125.00
C 129.39 125.72 125.49 123.84 121.00 124.00
C 119.42 123.81 120.06 123.73 119.00 123.00
C 116.09 121.00 115.01 119.20 114.00 116.00
C 113.49 114.39 111.13 109.00 115.00 109.00
C 116.58 110.67 115.97 113.81 117.00 116.00
C 117.56 117.79 118.39 119.21 119.00 121.00
C 119.12 120.56 120.43 119.24 121.00 119.00
C 123.54 117.92 127.35 119.81 130.00 119.00
C 130.00 116.00 130.00 113.00 130.00 110.00
C 130.24 109.06 129.81 107.95 130.00 107.00
C 131.77 106.79 133.37 108.54 134.00 110.00
M 273.00 139.00 
C 266.19 138.08 259.82 136.01 252.00 137.00
C 252.52 139.32 252.66 153.42 248.77 150.21 C 244.88 147.01 250.09 137.12 248.00 133.00
C 254.67 133.00 261.33 133.00 268.00 133.00
C 267.27 124.35 269.80 114.84 266.00 107.00
C 278.54 112.45 271.64 128.22 273.00 139.00
M 79.00 127.00 
C 74.04 128.17 72.36 112.23 75.78 109.78 C 79.20 107.32 79.90 123.76 79.00 127.00
M 252.00 127.00 
C 246.96 129.02 245.42 112.23 248.78 109.78 C 252.14 107.32 252.95 123.76 252.00 127.00
M 193.00 142.00 
C 193.47 141.88 194.50 141.99 195.00 142.00
C 196.00 142.01 197.00 141.99 198.00 142.00
C 197.88 149.53 191.71 155.33 194.00 163.00
C 187.13 166.83 187.38 179.44 184.00 187.00
C 188.97 178.08 197.30 168.98 197.00 158.00
C 203.63 158.54 204.99 149.55 209.00 146.00
C 211.65 135.32 207.02 122.84 209.00 112.00
C 217.60 115.38 210.86 130.80 213.00 139.00
C 214.25 138.70 214.71 137.17 216.00 137.00
C 221.92 128.01 222.80 139.17 219.69 144.69 C 216.59 150.22 213.75 156.43 214.00 163.00
C 206.65 164.77 205.50 175.11 200.00 180.00
C 207.09 179.58 213.75 178.15 219.00 173.00
C 222.28 170.88 225.36 168.16 229.00 167.00
C 225.70 171.00 221.01 173.74 217.00 177.00
C 216.04 178.38 215.00 178.84 214.00 180.00
C 224.52 186.79 219.54 202.37 215.08 212.08 C 210.61 221.78 205.34 229.80 198.70 238.70 C 192.06 247.59 183.92 251.23 175.92 258.92 C 167.92 266.61 150.75 264.11 151.00 251.00 C 151.26 237.88 156.33 230.52 164.25 221.25 C 172.17 211.97 173.36 203.75 178.00 193.00
C 175.50 192.02 174.55 189.54 175.00 187.00
C 180.29 193.56 181.60 183.90 182.93 178.93 C 184.26 173.95 187.65 167.44 187.00 163.00
C 184.11 164.13 180.00 162.15 177.00 163.00
C 174.93 155.23 184.56 158.76 189.00 158.00
C 189.00 142.67 189.00 127.33 189.00 112.00
C 197.74 116.31 190.76 132.85 193.00 142.00
M 132.00 134.00 
C 135.24 139.18 134.91 148.38 136.60 154.74 C 138.28 161.11 126.04 165.57 120.99 164.99 C 115.94 164.41 104.58 164.22 103.00 157.00
C 119.78 165.45 139.26 151.51 129.00 133.00
C 128.89 132.01 127.47 131.22 128.00 130.00
C 129.61 130.99 132.40 131.42 132.00 134.00
M 115.00 140.00 
C 111.70 137.63 106.94 135.27 106.00 131.00
C 109.57 133.25 114.57 135.26 115.00 140.00
M 41.00 163.00 
C 34.67 163.00 28.33 163.00 22.00 163.00
C 20.01 154.90 30.39 158.96 35.00 158.00
C 36.25 149.64 32.45 138.77 37.00 132.00
C 40.59 141.40 37.65 153.39 41.00 163.00
M 98.00 141.00 
C 100.33 149.60 100.11 161.64 89.92 163.92 C 79.74 166.21 69.90 165.13 65.00 156.00
C 72.71 159.78 78.75 159.29 87.07 157.07 C 95.40 154.85 91.38 142.51 98.00 141.00
M 238.00 156.00 
C 249.22 162.98 270.71 157.70 267.00 141.00
C 278.83 141.31 272.90 161.03 263.97 162.97 C 255.04 164.92 241.65 166.79 238.00 156.00
M 113.00 150.00 
C 110.37 138.43 122.80 149.14 113.00 150.00
M 270.00 162.00 
C 271.21 163.21 268.94 166.27 267.32 164.66 C 265.70 163.05 268.88 160.88 270.00 162.00 Z"/>
</g>
<g fill="#A487EB" fill-opacity="0.81" stroke="None">
<path d="
M 62.00 163.00 
C 58.54 150.82 59.36 137.28 59.00 125.00 C 58.64 112.72 66.64 100.32 55.00 92.00
C 56.19 102.69 57.50 116.92 53.92 126.92 C 50.34 136.92 56.59 147.20 56.00 158.00
C 51.39 158.96 41.01 154.90 43.00 163.00
C 49.33 163.00 55.67 163.00 62.00 163.00 Z"/>
</g>
<g fill="#775AD5" fill-opacity="0.61" stroke="None">
<path d="
M 293.00 173.00 
C 293.03 174.25 293.87 174.34 294.00 175.00
C 295.79 171.50 299.50 167.96 302.00 165.00
C 299.85 170.80 297.95 177.58 292.00 181.00
C 291.47 179.72 292.97 179.14 293.00 178.00
C 293.33 177.67 290.66 178.52 290.00 179.00
C 285.54 189.80 296.45 183.22 299.25 177.25 C 302.04 171.27 307.55 165.52 311.00 160.00
C 307.41 170.11 318.11 181.32 325.00 168.00
C 335.02 171.50 342.24 158.82 347.00 152.00
C 350.10 154.78 342.97 160.79 348.00 163.00
C 352.63 154.02 357.79 142.14 368.00 138.00
C 362.55 134.49 359.03 141.44 355.00 144.00
C 355.50 141.48 357.54 137.36 354.00 136.00
C 351.57 148.94 339.58 160.47 328.00 166.00
C 326.70 154.87 345.04 153.86 344.00 142.00
C 326.61 143.71 328.80 166.39 316.00 172.00
C 309.41 144.44 337.80 122.89 337.00 95.00
C 326.49 101.18 324.69 116.66 319.93 127.93 C 315.16 139.19 313.98 152.95 306.00 163.00
C 302.30 157.62 292.88 168.46 293.00 173.00
M 321.00 137.00 
C 321.34 126.43 328.57 114.82 332.00 104.00
C 332.20 114.70 324.69 126.26 321.00 137.00
M 333.00 154.00 
C 332.11 154.79 331.78 156.62 330.00 156.00
C 330.97 154.15 331.79 151.76 334.00 151.00
C 335.70 149.18 337.13 145.97 340.00 146.00
C 338.27 149.11 334.67 150.92 333.00 154.00 Z"/>
</g>
<g fill="#A389E1" fill-opacity="0.69" stroke="None">
<path d="
M 39.00 98.00 
C 32.53 96.84 35.19 106.89 35.00 111.00 C 34.81 115.11 33.00 124.20 39.00 123.00
C 39.00 114.67 39.00 106.33 39.00 98.00 Z"/>
</g>
<g fill="#000000" fill-opacity="0.00" stroke="None">
<path d="
M 321.00 137.00 
C 324.69 126.26 332.20 114.70 332.00 104.00
C 328.57 114.82 321.34 126.43 321.00 137.00 Z"/>
</g>
<g fill="#A284E7" fill-opacity="0.82" stroke="None">
<path d="
M 234.00 163.00 
C 233.57 153.08 232.20 141.80 232.00 132.00 C 231.80 122.20 235.49 110.24 227.00 105.00
C 230.23 115.00 228.60 126.30 229.00 137.00 C 229.40 147.70 231.90 163.00 216.00 158.00
C 216.39 166.92 227.97 161.56 234.00 163.00 Z"/>
</g>
<g fill="#A488ED" fill-opacity="0.74" stroke="None">
<path d="
M 154.00 106.00 
C 146.50 106.79 150.96 118.50 150.00 125.00 C 149.04 131.50 150.72 140.29 150.00 147.00
C 157.38 145.42 153.10 134.51 154.00 128.00 C 154.90 121.49 153.32 112.71 154.00 106.00 Z"/>
</g>
<g fill="#A487E8" fill-opacity="0.74" stroke="None">
<path d="
M 173.00 106.00 
C 165.69 106.76 169.70 118.53 169.00 125.00 C 168.30 131.47 169.21 140.36 169.00 147.00 C 168.78 153.63 164.05 156.91 158.02 158.02 C 152.00 159.14 145.41 159.61 140.00 156.00
C 142.85 166.61 171.00 170.53 173.00 156.00 C 175.00 141.47 171.50 121.07 173.00 106.00 Z"/>
</g>
<g fill="#A488E7" fill-opacity="0.73" stroke="None">
<path d="
M 95.00 107.00 
C 94.10 114.40 95.62 124.43 95.00 133.00
C 88.33 133.00 81.67 133.00 75.00 133.00
C 77.09 137.12 71.88 147.01 75.77 150.21 C 79.66 153.42 79.52 139.32 79.00 137.00
C 86.82 136.01 93.19 138.08 100.00 139.00
C 101.42 128.25 101.10 116.05 95.00 107.00 Z"/>
</g>
<g fill="#A293D4" fill-opacity="0.44" stroke="None">
<path d="
M 130.00 110.00 
C 130.56 109.21 133.49 109.32 134.00 110.00
C 133.37 108.54 131.77 106.79 130.00 107.00
C 129.81 107.95 130.24 109.06 130.00 110.00 Z"/>
</g>
<g fill="#A386EB" fill-opacity="0.77" stroke="None">
<path d="
M 273.00 139.00 
C 271.64 128.22 278.54 112.45 266.00 107.00
C 269.80 114.84 267.27 124.35 268.00 133.00
C 261.33 133.00 254.67 133.00 248.00 133.00
C 250.09 137.12 244.88 147.01 248.77 150.21 C 252.66 153.42 252.52 139.32 252.00 137.00
C 259.82 136.01 266.19 138.08 273.00 139.00 Z"/>
</g>
<g fill="#A48DE1" fill-opacity="0.67" stroke="None">
<path d="
M 79.00 127.00 
C 79.90 123.76 79.20 107.32 75.78 109.78 C 72.36 112.23 74.04 128.17 79.00 127.00 Z"/>
</g>
<g fill="#A28FE1" fill-opacity="0.71" stroke="None">
<path d="
M 114.00 116.00 
C 114.89 117.38 116.38 118.19 117.00 116.00
C 115.97 113.81 116.58 110.67 115.00 109.00
C 111.13 109.00 113.49 114.39 114.00 116.00 Z"/>
</g>
<g fill="#A184ED" fill-opacity="0.78" stroke="None">
<path d="
M 130.00 110.00 
C 130.00 113.00 130.00 116.00 130.00 119.00
C 127.35 119.81 123.54 117.92 121.00 119.00
C 120.41 119.82 121.78 123.46 121.00 124.00
C 125.49 123.84 129.39 125.72 134.00 125.00
C 132.84 120.40 135.55 114.46 134.00 110.00
C 133.49 109.32 130.56 109.21 130.00 110.00 Z"/>
</g>
<g fill="#9D86E8" fill-opacity="0.64" stroke="None">
<path d="
M 252.00 127.00 
C 252.95 123.76 252.14 107.32 248.78 109.78 C 245.42 112.23 246.96 129.02 252.00 127.00 Z"/>
</g>
<g fill="#9E82E6" fill-opacity="0.77" stroke="None">
<path d="
M 187.00 163.00 
C 188.47 159.23 191.76 155.56 193.00 151.00
C 192.92 149.56 187.83 143.34 193.00 142.00
C 190.76 132.85 197.74 116.31 189.00 112.00
C 189.00 127.33 189.00 142.67 189.00 158.00
C 184.56 158.76 174.93 155.23 177.00 163.00
C 180.00 162.15 184.11 164.13 187.00 163.00 Z"/>
</g>
<g fill="#9D7FE3" fill-opacity="0.68" stroke="None">
<path d="
M 209.00 146.00 
C 211.28 143.08 213.88 140.22 216.00 137.00
C 214.71 137.17 214.25 138.70 213.00 139.00
C 210.86 130.80 217.60 115.38 209.00 112.00
C 207.02 122.84 211.65 135.32 209.00 146.00 Z"/>
</g>
<g fill="#A391DB" fill-opacity="0.46" stroke="None">
<path d="
M 119.00 123.00 
C 119.52 123.87 119.02 121.05 119.00 121.00
C 118.39 119.21 117.56 117.79 117.00 116.00
C 116.38 118.19 114.89 117.38 114.00 116.00
C 115.01 119.20 116.09 121.00 119.00 123.00 Z"/>
</g>
<g fill="#9E84DF" fill-opacity="0.09" stroke="None">
<path d="
M 119.00 121.00 
C 119.02 121.05 119.52 123.87 119.00 123.00
C 120.06 123.73 119.42 123.81 121.00 124.00
C 121.78 123.46 120.41 119.82 121.00 119.00
C 120.43 119.24 119.12 120.56 119.00 121.00 Z"/>
</g>
<g fill="#785DD3" fill-opacity="0.60" stroke="None">
<path d="
M 288.00 180.00 
C 288.56 178.95 289.09 175.83 289.00 176.00
C 284.84 179.99 280.99 186.40 275.00 188.00
C 277.53 163.68 289.56 141.17 299.00 119.00
C 290.94 125.03 287.49 137.78 282.98 147.98 C 278.47 158.17 274.96 170.88 273.00 182.00
C 266.21 184.85 263.24 193.63 256.00 196.00
C 254.70 188.37 267.32 178.39 261.00 174.00
C 256.99 184.26 253.91 197.92 242.00 202.00
C 240.44 196.27 246.99 189.25 242.00 185.00
C 236.40 191.43 234.43 200.38 228.00 206.00
C 228.63 200.18 233.52 195.80 234.00 190.00
C 227.24 192.91 226.32 204.11 224.00 211.00
C 232.21 212.86 235.73 199.86 239.00 194.00
C 240.26 196.56 237.52 205.62 242.97 204.97 C 248.42 204.33 248.22 199.73 252.00 197.00
C 258.88 204.51 267.27 188.94 272.00 184.00
C 270.94 198.96 284.70 186.22 288.00 180.00 Z"/>
</g>
<g fill="#A797DE" fill-opacity="0.38" stroke="None">
<path d="
M 129.00 133.00 
C 129.49 133.38 131.29 133.53 132.00 134.00
C 132.40 131.42 129.61 130.99 128.00 130.00
C 127.47 131.22 128.89 132.01 129.00 133.00 Z"/>
</g>
<g fill="#9E93CF" fill-opacity="0.38" stroke="None">
<path d="
M 115.00 140.00 
C 114.57 135.26 109.57 133.25 106.00 131.00
C 106.94 135.27 111.70 137.63 115.00 140.00 Z"/>
</g>
<g fill="#A085E6" fill-opacity="0.74" stroke="None">
<path d="
M 41.00 163.00 
C 37.65 153.39 40.59 141.40 37.00 132.00
C 32.45 138.77 36.25 149.64 35.00 158.00
C 30.39 158.96 20.01 154.90 22.00 163.00
C 28.33 163.00 34.67 163.00 41.00 163.00 Z"/>
</g>
<g fill="#A587EE" fill-opacity="0.79" stroke="None">
<path d="
M 132.00 134.00 
C 131.29 133.53 129.49 133.38 129.00 133.00
C 139.26 151.51 119.78 165.45 103.00 157.00
C 104.58 164.22 115.94 164.41 120.99 164.99 C 126.04 165.57 138.28 161.11 136.60 154.74 C 134.91 148.38 135.24 139.18 132.00 134.00 Z"/>
</g>
<g fill="#805BE1" fill-opacity="0.71" stroke="None">
<path d="
M 216.00 137.00 
C 213.88 140.22 211.28 143.08 209.00 146.00
C 204.99 149.55 203.63 158.54 197.00 158.00
C 197.30 168.98 188.97 178.08 184.00 187.00
C 187.38 179.44 187.13 166.83 194.00 163.00
C 191.71 155.33 197.88 149.53 198.00 142.00
C 197.00 141.99 196.00 142.01 195.00 142.00
C 195.25 144.12 193.61 148.76 193.00 151.00
C 191.76 155.56 188.47 159.23 187.00 163.00
C 187.65 167.44 184.26 173.95 182.93 178.93 C 181.60 183.90 180.29 193.56 175.00 187.00
C 174.55 189.54 175.50 192.02 178.00 193.00
C 173.36 203.75 172.17 211.97 164.25 221.25 C 156.33 230.52 151.26 237.88 151.00 251.00 C 150.75 264.11 167.92 266.61 175.92 258.92 C 183.92 251.23 192.06 247.59 198.70 238.70 C 205.34 229.80 210.61 221.78 215.08 212.08 C 219.54 202.37 224.52 186.79 214.00 180.00
C 215.00 178.84 216.04 178.38 217.00 177.00
C 217.77 175.89 218.34 173.81 219.00 173.00
C 213.75 178.15 207.09 179.58 200.00 180.00
C 205.50 175.11 206.65 164.77 214.00 163.00
C 213.75 156.43 216.59 150.22 219.69 144.69 C 222.80 139.17 221.92 128.01 216.00 137.00
M 214.00 151.00 
C 213.70 151.73 213.30 152.27 213.00 153.00
C 211.36 156.98 209.30 160.51 207.00 164.00
C 202.28 171.17 197.68 180.62 190.00 185.00
C 192.90 177.47 198.00 170.57 201.00 163.00
C 202.31 160.54 204.52 159.03 206.00 157.00
C 207.16 155.41 207.30 153.02 209.00 152.00
C 209.00 154.00 209.00 156.00 209.00 158.00
C 211.33 157.05 209.45 149.26 212.00 147.00
C 212.26 146.77 212.77 146.26 213.00 146.00
C 214.97 143.78 215.40 140.48 218.00 139.00
C 218.14 143.44 214.82 146.83 214.00 151.00
M 204.00 184.00 
C 196.97 188.45 190.77 194.16 184.00 199.00
C 187.17 191.38 196.25 185.08 204.00 182.00
C 204.87 181.79 206.48 180.18 208.00 181.00
C 207.40 182.82 205.44 183.15 204.00 184.00
M 157.00 239.00 
C 156.79 250.66 164.30 246.60 165.98 238.98 C 167.65 231.35 172.54 226.87 173.77 219.77 C 175.00 212.67 180.00 208.44 184.75 203.75 C 189.51 199.07 194.95 194.24 199.70 190.70 C 204.45 187.15 209.96 179.02 214.75 185.25 C 219.54 191.47 216.34 200.75 214.07 207.07 C 211.81 213.40 208.33 219.16 204.75 224.75 C 201.16 230.33 197.21 235.77 192.75 240.75 C 188.29 245.72 183.90 249.55 178.75 253.75 C 173.61 257.95 167.50 262.57 160.78 259.22 C 154.05 255.88 153.28 245.34 157.00 239.00
M 186.00 187.00 
C 185.97 189.48 184.31 191.28 182.00 192.00
C 182.44 190.06 184.24 188.28 186.00 187.00
M 162.00 232.00 
C 161.33 234.16 159.94 236.87 158.00 238.00
C 158.40 235.89 159.38 233.34 161.00 232.00
C 162.52 229.50 163.18 225.69 166.00 225.00
C 164.51 227.21 164.93 230.88 162.00 232.00 Z"/>
</g>
<g fill="#000000" fill-opacity="0.00" stroke="None">
<path d="
M 213.00 146.00 
C 213.03 146.06 213.97 151.41 214.00 151.00
C 214.82 146.83 218.14 143.44 218.00 139.00
C 215.40 140.48 214.97 143.78 213.00 146.00 Z"/>
</g>
<g fill="#A687EE" fill-opacity="0.79" stroke="None">
<path d="
M 98.00 141.00 
C 91.38 142.51 95.40 154.85 87.07 157.07 C 78.75 159.29 72.71 159.78 65.00 156.00
C 69.90 165.13 79.74 166.21 89.92 163.92 C 100.11 161.64 100.33 149.60 98.00 141.00 Z"/>
</g>
<g fill="#A486EC" fill-opacity="0.78" stroke="None">
<path d="
M 238.00 156.00 
C 241.65 166.79 255.04 164.92 263.97 162.97 C 272.90 161.03 278.83 141.31 267.00 141.00
C 270.71 157.70 249.22 162.98 238.00 156.00 Z"/>
</g>
<g fill="#9A70F8" fill-opacity="0.44" stroke="None">
<path d="
M 193.00 151.00 
C 193.61 148.76 195.25 144.12 195.00 142.00
C 194.50 141.99 193.47 141.88 193.00 142.00
C 187.83 143.34 192.92 149.56 193.00 151.00 Z"/>
</g>
<g fill="#A490DE" fill-opacity="0.69" stroke="None">
<path d="
M 113.00 150.00 
C 122.80 149.14 110.37 138.43 113.00 150.00 Z"/>
</g>
<g fill="#9170E1" fill-opacity="0.13" stroke="None">
<path d="
M 212.00 147.00 
C 211.48 149.13 213.04 151.79 213.00 153.00
C 213.30 152.27 213.70 151.73 214.00 151.00
C 213.97 151.41 213.03 146.06 213.00 146.00
C 212.77 146.26 212.26 146.77 212.00 147.00 Z"/>
</g>
<g fill="#1D1439" fill-opacity="0.06" stroke="None">
<path d="
M 334.00 151.00 
C 333.42 151.84 332.74 154.40 333.00 154.00
C 334.67 150.92 338.27 149.11 340.00 146.00
C 337.13 145.97 335.70 149.18 334.00 151.00 Z"/>
</g>
<g fill="#9B71F5" fill-opacity="0.84" stroke="None">
<path d="
M 209.00 158.00 
C 207.54 158.59 206.56 156.99 206.00 157.00
C 204.52 159.03 202.31 160.54 201.00 163.00
C 202.88 163.47 205.93 161.94 207.00 164.00
C 209.30 160.51 211.36 156.98 213.00 153.00
C 213.04 151.79 211.48 149.13 212.00 147.00
C 209.45 149.26 211.33 157.05 209.00 158.00 Z"/>
</g>
<g fill="#8560EE" fill-opacity="0.36" stroke="None">
<path d="
M 333.00 154.00 
C 332.74 154.40 333.42 151.84 334.00 151.00
C 331.79 151.76 330.97 154.15 330.00 156.00
C 331.78 156.62 332.11 154.79 333.00 154.00 Z"/>
</g>
<g fill="#000000" fill-opacity="0.00" stroke="None">
<path d="
M 206.00 157.00 
C 206.56 156.99 207.54 158.59 209.00 158.00
C 209.00 156.00 209.00 154.00 209.00 152.00
C 207.30 153.02 207.16 155.41 206.00 157.00 Z"/>
</g>
<g fill="#7E6EC6" fill-opacity="0.47" stroke="None">
<path d="
M 270.00 162.00 
C 268.88 160.88 265.70 163.05 267.32 164.66 C 268.94 166.27 271.21 163.21 270.00 162.00 Z"/>
</g>
<g fill="#000000" fill-opacity="0.00" stroke="None">
<path d="
M 207.00 164.00 
C 205.93 161.94 202.88 163.47 201.00 163.00
C 198.00 170.57 192.90 177.47 190.00 185.00
C 197.68 180.62 202.28 171.17 207.00 164.00 Z"/>
</g>
<g fill="#000000" fill-opacity="0.00" stroke="None">
<path d="
M 294.00 175.00 
C 294.23 176.19 293.36 176.97 293.00 178.00
C 292.97 179.14 291.47 179.72 292.00 181.00
C 297.95 177.58 299.85 170.80 302.00 165.00
C 299.50 167.96 295.79 171.50 294.00 175.00 Z"/>
</g>
<g fill="#9189C0" fill-opacity="0.42" stroke="None">
<path d="
M 219.00 173.00 
C 218.34 173.81 217.77 175.89 217.00 177.00
C 221.01 173.74 225.70 171.00 229.00 167.00
C 225.36 168.16 222.28 170.88 219.00 173.00 Z"/>
</g>
<g fill="#8266DC" fill-opacity="0.37" stroke="None">
<path d="
M 289.00 176.00 
C 289.09 175.83 288.56 178.95 288.00 180.00
C 288.41 179.63 289.49 179.37 290.00 179.00
C 290.66 178.52 293.33 177.67 293.00 178.00
C 293.36 176.97 294.23 176.19 294.00 175.00
C 293.87 174.34 293.03 174.25 293.00 173.00
C 292.30 173.77 290.07 174.88 289.00 176.00 Z"/>
</g>
<g fill="#9268EF" fill-opacity="0.36" stroke="None">
<path d="
M 204.00 182.00 
C 204.43 181.41 204.34 183.58 204.00 184.00
C 205.44 183.15 207.40 182.82 208.00 181.00
C 206.48 180.18 204.87 181.79 204.00 182.00 Z"/>
</g>
<g fill="#000000" fill-opacity="0.00" stroke="None">
<path d="
M 204.00 184.00 
C 204.34 183.58 204.43 181.41 204.00 182.00
C 196.25 185.08 187.17 191.38 184.00 199.00
C 190.77 194.16 196.97 188.45 204.00 184.00 Z"/>
</g>
<g fill="#000000" fill-opacity="0.00" stroke="None">
<path d="
M 157.00 239.00 
C 153.28 245.34 154.05 255.88 160.78 259.22 C 167.50 262.57 173.61 257.95 178.75 253.75 C 183.90 249.55 188.29 245.72 192.75 240.75 C 197.21 235.77 201.16 230.33 204.75 224.75 C 208.33 219.16 211.81 213.40 214.07 207.07 C 216.34 200.75 219.54 191.47 214.75 185.25 C 209.96 179.02 204.45 187.15 199.70 190.70 C 194.95 194.24 189.51 199.07 184.75 203.75 C 180.00 208.44 175.00 212.67 173.77 219.77 C 172.54 226.87 167.65 231.35 165.98 238.98 C 164.30 246.60 156.79 250.66 157.00 239.00 Z"/>
</g>
<g fill="#8058F8" fill-opacity="0.49" stroke="None">
<path d="
M 186.00 187.00 
C 184.24 188.28 182.44 190.06 182.00 192.00
C 184.31 191.28 185.97 189.48 186.00 187.00 Z"/>
</g>
<g fill="#7B4FDC" fill-opacity="0.34" stroke="None">
<path d="
M 161.00 232.00 
C 161.28 231.75 162.00 232.00 162.00 232.00
C 164.93 230.88 164.51 227.21 166.00 225.00
C 163.18 225.69 162.52 229.50 161.00 232.00 Z"/>
</g>
<g fill="#1A0C2F" fill-opacity="0.05" stroke="None">
<path d="
M 162.00 232.00 
C 162.00 232.00 161.28 231.75 161.00 232.00
C 159.38 233.34 158.40 235.89 158.00 238.00
C 159.94 236.87 161.33 234.16 162.00 232.00 Z"/>
</g>
</svg>